<?xml version="1.0" encoding="utf-8"?>
<!-- Generator: Adobe Illustrator 17.0.0, SVG Export Plug-In . SVG Version: 6.00 Build 0)  -->
<!DOCTYPE svg PUBLIC "-//W3C//DTD SVG 1.1//EN" "http://www.w3.org/Graphics/SVG/1.1/DTD/svg11.dtd">
<svg version="1.1" id="Layer_1" xmlns="http://www.w3.org/2000/svg" xmlns:xlink="http://www.w3.org/1999/xlink" x="0px" y="0px"
	 width="558.391px" height="178.202px" viewBox="0 0 558.391 178.202" enable-background="new 0 0 558.391 178.202"
	 xml:space="preserve">
<g>
	<g>
		<path fill="#575756" d="M-499.355,53.688c-9.751,0-13.297-7.042-13.297-16.741c0-8.865,3.201-16.499,13.592-16.499
			c2.757,0,5.317,0.395,7.731,1.182l-1.232,3.154c-2.067-0.888-4.135-1.529-6.499-1.529c-7.732,0-9.85,6.255-9.85,13.642
			c0,7.828,2.216,13.984,9.555,13.984c2.461,0,4.578-0.739,7.139-1.773l1.232,3.152C-493.791,53.245-496.254,53.688-499.355,53.688z
			"/>
		<path fill="#575756" d="M-463.501,52.851l-3.396-9.505h-13.1l-3.595,9.505h-3.792l12.951-31.86h2.955l12.015,31.86H-463.501z
			 M-473.151,25.521l-5.811,15.118h11.129L-473.151,25.521z M-474.678,19.266h-2.56l4.728-5.761h3.643L-474.678,19.266z"/>
		<path fill="#575756" d="M-424.935,52.851V24.879l-10.883,27.972h-2.955l-10.982-27.972v27.972h-3.298V20.99h5.514l10.391,26.837
			l10.49-26.837h5.219v31.86H-424.935z"/>
		<path fill="#575756" d="M-391.096,52.851l-3.396-9.505h-13.099l-3.595,9.505h-3.792l12.95-31.86h2.955l12.016,31.86H-391.096z
			 M-400.748,25.521l-5.811,15.118h11.13L-400.748,25.521z"/>
		<path fill="#575756" d="M-363.217,52.851l-10.489-14.231h-3.348v14.231h-3.595V20.99h9.946c5.072,0,10.145,1.921,10.145,8.567
			c0,4.63-2.118,8.667-8.964,8.964l10.735,14.329H-363.217z M-370.457,23.797h-6.598v12.016h6.648c4.629,0,6.155-2.709,6.155-6.255
			C-364.252,25.814-366.467,23.797-370.457,23.797z"/>
		<path fill="#575756" d="M-331.055,52.851l-3.396-9.505h-13.1l-3.594,9.505h-3.793l12.951-31.86h2.955l12.015,31.86H-331.055z
			 M-340.707,25.521l-5.811,15.118h11.13L-340.707,25.521z"/>
		<path fill="#575756" d="M-499.355,104.586c-9.751,0-13.297-7.042-13.297-16.743c0-8.863,3.201-16.495,13.592-16.495
			c2.757,0,5.317,0.393,7.731,1.182l-1.232,3.15c-2.067-0.886-4.135-1.525-6.499-1.525c-7.732,0-9.85,6.253-9.85,13.639
			c0,7.831,2.216,13.986,9.555,13.986c2.461,0,4.578-0.739,7.139-1.774l1.232,3.152
			C-493.791,104.142-496.254,104.586-499.355,104.586z"/>
		<path fill="#575756" d="M-465.568,103.749V88.729h-15.019v15.021h-3.595v-31.86h3.595v13.984h15.019V71.889h3.595v31.86H-465.568z
			"/>
		<path fill="#575756" d="M-452.905,103.749v-31.86h3.595v31.86H-452.905z"/>
		<path fill="#575756" d="M-440.247,103.749v-31.86h3.595v28.907h14.575v2.953H-440.247z"/>
		<path fill="#575756" d="M-416.85,103.749v-31.86h17.63v2.807h-14.035v11.178h12.999v2.808h-12.999v12.261h14.477v2.808H-416.85z"
			/>
		<path fill="#575756" d="M-372.13,103.749l-15.021-27.627v27.627h-3.298v-31.86h5.121l14.92,27.625V71.889h3.496v31.86H-372.13z"/>
		<path fill="#575756" d="M-336.57,103.749l-3.396-9.503h-13.1l-3.595,9.503h-3.792l12.951-31.86h2.955l12.015,31.86H-336.57z
			 M-346.221,76.419l-5.81,15.116h11.129L-346.221,76.419z"/>
		<path fill="#575756" d="M-503.148,154.647h-7.779v-31.86h7.779c11.03,0,15.218,4.333,15.218,15.806
			C-487.93,150.167-492.363,154.647-503.148,154.647z M-503.148,125.594h-4.185v26.246h4.628c7.485,0,11.031-3.988,11.031-13.197
			C-491.673,128.697-494.875,125.594-503.148,125.594z"/>
		<path fill="#575756" d="M-479.996,154.647v-31.86h17.629v2.807h-14.034v11.178h12.999v2.807h-12.999v12.262h14.478v2.808H-479.996
			z"/>
		<path fill="#575756" d="M-453.593,154.647v-31.86H-450v28.905h14.576v2.955H-453.593z"/>
		<path fill="#575756" d="M-418.18,154.647v-31.86h3.595v28.905h14.575v2.955H-418.18z"/>
		<path fill="#575756" d="M-395.375,154.647v-31.86h3.595v31.86H-395.375z"/>
		<path fill="#575756" d="M-372.426,154.647h-10.29v-31.86h8.665c6.205,0,10.735,1.479,10.735,8.32c0,3.35-2.116,5.812-5.071,6.847
			c3.94,0.789,6.55,3.249,6.55,7.631C-361.838,152.874-366.614,154.647-372.426,154.647z M-374.051,125.594h-5.07v11.277h5.76
			c3.498,0,6.353-1.675,6.353-5.714C-367.008,126.726-369.224,125.594-374.051,125.594z M-373.262,139.629h-5.859v12.211h6.4
			c4.186,0,7.141-0.983,7.141-6.255C-365.581,140.612-369.077,139.629-373.262,139.629z"/>
		<path fill="#575756" d="M-336.717,154.647l-10.489-14.231h-3.348v14.231h-3.595v-31.86h9.946c5.072,0,10.145,1.921,10.145,8.567
			c0,4.63-2.118,8.667-8.964,8.963l10.735,14.33H-336.717z M-343.957,125.594h-6.598v12.016h6.647c4.629,0,6.155-2.709,6.155-6.255
			C-337.752,127.611-339.967,125.594-343.957,125.594z"/>
		<path fill="#575756" d="M-313.221,155.484c-10.589,0-13.74-7.141-13.74-16.646c0-9.404,3.597-16.595,13.788-16.595
			c10.343,0,13.494,7.042,13.494,16.595C-299.679,148.296-303.128,155.484-313.221,155.484z M-313.221,125.051
			c-7.583,0-9.997,5.367-9.997,13.788s2.414,13.839,9.997,13.839c7.682,0,9.8-5.664,9.8-13.839
			C-303.421,130.37-305.688,125.051-313.221,125.051z"/>
	</g>
	<g>
		<path fill="#1D71B8" d="M-575.412,121.059c0,27.184,9.642,34.651,9.642,34.651h-271.735c0,0-20.564-13.229-20.564-31.27
			c0-22.855,20.564-36.091,20.564-36.091h271.735C-565.77,88.35-575.412,97.188-575.412,121.059z"/>
		<path fill="#1D71B8" d="M-752.916,81.515c0,0,73.209-11.6,115.805-36.173c54.267-31.312,68.908-55.774,68.908-55.774
			s-11.949,38.693-67.569,67.545C-687.366,83.875-752.916,81.515-752.916,81.515z"/>
		<g>
			<polygon fill="#FFFFFF" points="-574.114,106.989 -829.087,106.989 -829.087,105.161 -573.716,105.161 -574.114,106.989 			"/>
		</g>
		<g>
			<polygon fill="#FFFFFF" points="-572.818,142.13 -829.087,142.13 -829.087,140.302 -573.316,140.302 -572.818,142.13 			"/>
		</g>
		<g>
			<polygon fill="#FFFFFF" points="-575.38,124.385 -837.406,124.385 -837.406,122.557 -575.412,122.557 -575.38,124.385 			"/>
		</g>
		<path fill="#1D71B8" d="M-690.271-4.34c-0.894,32.187-44.945,67.495-105.057,82.13c-12.806,3.117-25.388,5.046-37.425,5.91
			l-0.017,0.054c18.843,0.668,38.578-0.368,58.755-3.317c84.244-12.328,151.662-54.286,174.229-102.929L-690.271-4.34z"/>
	</g>
</g>
<g>
	<path fill="#575756" d="M358.715,76.18c-9.751,0-13.297-7.042-13.297-16.741c0-8.865,3.201-16.499,13.592-16.499
		c2.757,0,5.317,0.395,7.731,1.182l-1.232,3.154c-2.067-0.888-4.135-1.529-6.499-1.529c-7.732,0-9.85,6.255-9.85,13.643
		c0,7.828,2.216,13.984,9.555,13.984c2.461,0,4.578-0.739,7.139-1.773l1.232,3.152C364.279,75.737,361.816,76.18,358.715,76.18z"/>
	<path fill="#575756" d="M394.569,75.343l-3.396-9.505h-13.1l-3.595,9.505h-3.792l12.951-31.86h2.955l12.015,31.86H394.569z
		 M384.919,48.013l-5.811,15.118h11.129L384.919,48.013z M383.392,41.758h-2.56l4.728-5.761h3.643L383.392,41.758z"/>
	<path fill="#575756" d="M433.135,75.343V47.371l-10.883,27.972h-2.955l-10.982-27.972v27.972h-3.298v-31.86h5.514l10.391,26.837
		l10.49-26.837h5.219v31.86H433.135z"/>
	<path fill="#575756" d="M466.974,75.343l-3.396-9.505h-13.099l-3.595,9.505h-3.792l12.95-31.86h2.955l12.016,31.86H466.974z
		 M457.322,48.013l-5.811,15.118h11.13L457.322,48.013z"/>
	<path fill="#575756" d="M494.853,75.343l-10.489-14.231h-3.348v14.231h-3.595v-31.86h9.946c5.072,0,10.145,1.921,10.145,8.567
		c0,4.63-2.118,8.667-8.964,8.964l10.735,14.329H494.853z M487.613,46.289h-6.598v12.016h6.648c4.629,0,6.155-2.709,6.155-6.255
		C493.818,48.307,491.603,46.289,487.613,46.289z"/>
	<path fill="#575756" d="M527.015,75.343l-3.396-9.505h-13.1l-3.594,9.505h-3.793l12.951-31.86h2.955l12.015,31.86H527.015z
		 M517.363,48.013l-5.811,15.118h11.13L517.363,48.013z"/>
	<path fill="#575756" d="M358.715,127.078c-9.751,0-13.297-7.042-13.297-16.743c0-8.863,3.201-16.495,13.592-16.495
		c2.757,0,5.317,0.393,7.731,1.182l-1.232,3.15c-2.067-0.886-4.135-1.525-6.499-1.525c-7.732,0-9.85,6.253-9.85,13.639
		c0,7.831,2.216,13.986,9.555,13.986c2.461,0,4.578-0.739,7.139-1.774l1.232,3.152C364.279,126.634,361.816,127.078,358.715,127.078
		z"/>
	<path fill="#575756" d="M392.502,126.241v-15.021h-15.019v15.021h-3.595v-31.86h3.595v13.984h15.019V94.381h3.595v31.86H392.502z"
		/>
	<path fill="#575756" d="M405.165,126.241v-31.86h3.595v31.86H405.165z"/>
	<path fill="#575756" d="M417.823,126.241v-31.86h3.595v28.907h14.575v2.953H417.823z"/>
	<path fill="#575756" d="M441.22,126.241v-31.86h17.63v2.807h-14.035v11.178h12.999v2.808h-12.999v12.261h14.477v2.808H441.22z"/>
	<path fill="#575756" d="M485.94,126.241L470.92,98.614v27.627h-3.298v-31.86h5.121l14.92,27.625V94.381h3.496v31.86H485.94z"/>
	<path fill="#575756" d="M521.5,126.241l-3.396-9.503h-13.1l-3.595,9.503h-3.792l12.951-31.86h2.955l12.015,31.86H521.5z
		 M511.849,98.911l-5.81,15.116h11.129L511.849,98.911z"/>
	<path fill="#575756" d="M354.922,177.14h-7.779v-31.86h7.779c11.03,0,15.218,4.333,15.218,15.806
		C370.14,172.659,365.707,177.14,354.922,177.14z M354.922,148.086h-4.185v26.246h4.628c7.485,0,11.031-3.988,11.031-13.197
		C366.397,151.189,363.195,148.086,354.922,148.086z"/>
	<path fill="#575756" d="M378.074,177.14v-31.86h17.629v2.807h-14.034v11.178h12.999v2.807h-12.999v12.262h14.478v2.808H378.074z"/>
	<path fill="#575756" d="M404.477,177.14v-31.86h3.594v28.905h14.576v2.955H404.477z"/>
	<path fill="#575756" d="M439.89,177.14v-31.86h3.595v28.905h14.575v2.955H439.89z"/>
	<path fill="#575756" d="M462.695,177.14v-31.86h3.595v31.86H462.695z"/>
	<path fill="#575756" d="M485.644,177.14h-10.29v-31.86h8.665c6.205,0,10.735,1.479,10.735,8.32c0,3.35-2.116,5.812-5.071,6.847
		c3.94,0.789,6.55,3.249,6.55,7.631C496.232,175.366,491.456,177.14,485.644,177.14z M484.019,148.086h-5.07v11.277h5.76
		c3.498,0,6.353-1.675,6.353-5.714C491.061,149.218,488.846,148.086,484.019,148.086z M484.808,162.121h-5.859v12.211h6.4
		c4.186,0,7.141-0.983,7.141-6.255C492.489,163.104,488.993,162.121,484.808,162.121z"/>
	<path fill="#575756" d="M521.353,177.14l-10.489-14.231h-3.348v14.231h-3.595v-31.86h9.946c5.072,0,10.146,1.921,10.146,8.567
		c0,4.63-2.118,8.667-8.964,8.963l10.735,14.33H521.353z M514.113,148.086h-6.598v12.016h6.647c4.629,0,6.155-2.709,6.155-6.255
		C520.318,150.104,518.103,148.086,514.113,148.086z"/>
	<path fill="#575756" d="M544.849,177.977c-10.589,0-13.74-7.141-13.74-16.646c0-9.404,3.597-16.595,13.788-16.595
		c10.343,0,13.494,7.042,13.494,16.595C558.391,170.788,554.942,177.977,544.849,177.977z M544.849,147.543
		c-7.583,0-9.997,5.367-9.997,13.788s2.414,13.839,9.997,13.839c7.682,0,9.8-5.664,9.8-13.839
		C554.648,152.862,552.382,147.543,544.849,147.543z"/>
</g>
<g>
	<path fill="#1D71B8" d="M282.658,143.551c0,27.184,9.642,34.651,9.642,34.651H20.565c0,0-20.564-13.229-20.564-31.27
		c0-22.856,20.564-36.091,20.564-36.091H292.3C292.3,110.842,282.658,119.681,282.658,143.551z"/>
	<path fill="#1D71B8" d="M105.154,104.007c0,0,73.21-11.6,115.805-36.173c54.267-31.312,68.908-55.774,68.908-55.774
		s-11.949,38.693-67.569,67.545C170.704,106.367,105.154,104.007,105.154,104.007z"/>
	<g>
		<polygon fill="#FFFFFF" points="283.956,129.481 28.983,129.481 28.983,127.653 284.354,127.653 283.956,129.481 		"/>
	</g>
	<g>
		<polygon fill="#FFFFFF" points="285.252,164.622 28.983,164.622 28.983,162.794 284.754,162.794 285.252,164.622 		"/>
	</g>
	<g>
		<polygon fill="#FFFFFF" points="282.69,146.877 20.664,146.877 20.664,145.049 282.658,145.049 282.69,146.877 		"/>
	</g>
	<path fill="#1D71B8" d="M167.799,18.152c-0.895,32.187-44.945,67.495-105.057,82.13c-12.806,3.117-25.388,5.046-37.425,5.91
		l-0.017,0.054c18.843,0.668,38.578-0.368,58.755-3.317C168.299,90.601,235.718,48.643,258.284,0L167.799,18.152z"/>
</g>
<g>
	<path fill="#1D71B8" d="M993.933-62.256c0,27.184,9.642,34.651,9.642,34.651H731.84c0,0-20.565-13.228-20.565-31.269
		c0-22.855,20.565-36.091,20.565-36.091h271.735C1003.575-94.965,993.933-86.127,993.933-62.256z"/>
	<path fill="#1D71B8" d="M816.429-101.8c0,0,73.209-11.6,115.805-36.173c54.267-31.312,68.908-55.775,68.908-55.775
		s-11.949,38.693-67.569,67.545C881.979-99.44,816.429-101.8,816.429-101.8z"/>
	<g>
		<polygon fill="#FFFFFF" points="995.231,-76.326 740.258,-76.326 740.258,-78.154 995.629,-78.154 995.231,-76.326 		"/>
	</g>
	<g>
		<polygon fill="#FFFFFF" points="996.527,-41.185 740.258,-41.185 740.258,-43.013 996.029,-43.013 996.527,-41.185 		"/>
	</g>
	<g>
		<polygon fill="#FFFFFF" points="993.965,-58.93 731.939,-58.93 731.939,-60.758 993.933,-60.758 993.965,-58.93 		"/>
	</g>
	<path fill="#1D71B8" d="M879.074-187.655c-0.895,32.186-44.945,67.495-105.057,82.13c-12.806,3.117-25.388,5.046-37.425,5.91
		l-0.017,0.054c18.843,0.668,38.578-0.368,58.755-3.317c84.244-12.328,151.662-54.286,174.229-102.929L879.074-187.655z"/>
</g>
<g>
	<g>
		<path fill="#575756" d="M1072.727-70.46c-22.445,0-30.607-16.209-30.607-38.535c0-20.406,7.369-37.978,31.286-37.978
			c6.346,0,12.24,0.908,17.796,2.72l-2.837,7.261c-4.759-2.043-9.517-3.52-14.959-3.52c-17.796,0-22.672,14.398-22.672,31.402
			c0,18.019,5.1,32.189,21.993,32.189c5.665,0,10.538-1.701,16.432-4.082l2.837,7.256
			C1085.536-71.478,1079.866-70.46,1072.727-70.46z"/>
		<path fill="#575756" d="M1155.257-72.386l-7.816-21.878h-30.153l-8.274,21.878h-8.728l29.811-73.336h6.802l27.655,73.336H1155.257
			z M1133.044-135.295l-13.375,34.799h25.617L1133.044-135.295z M1129.528-149.692h-5.894l10.884-13.26h8.385L1129.528-149.692z"/>
		<path fill="#575756" d="M1244.027-72.386v-64.385l-25.05,64.385h-6.802l-25.277-64.385v64.385h-7.591v-73.336h12.692
			l23.917,61.773l24.146-61.773h12.013v73.336H1244.027z"/>
		<path fill="#575756" d="M1321.917-72.386l-7.818-21.878h-30.151l-8.274,21.878h-8.728l29.809-73.336h6.802l27.657,73.336H1321.917
			z M1299.702-135.295l-13.375,34.799h25.619L1299.702-135.295z"/>
		<path fill="#575756" d="M1386.089-72.386l-24.144-32.758h-7.706v32.758h-8.274v-73.336h22.895c11.675,0,23.353,4.422,23.353,19.72
			c0,10.657-4.876,19.95-20.633,20.633l24.711,32.983H1386.089z M1369.426-139.262h-15.187v27.658h15.301
			c10.655,0,14.168-6.236,14.168-14.398C1383.709-134.618,1378.608-139.262,1369.426-139.262z"/>
		<path fill="#575756" d="M1460.12-72.386l-7.818-21.878h-30.153l-8.272,21.878h-8.731l29.811-73.336h6.802l27.655,73.336H1460.12z
			 M1437.904-135.295l-13.375,34.799h25.619L1437.904-135.295z"/>
	</g>
	<g>
		<path fill="#575756" d="M1539.987-70.46c-22.445,0-30.607-16.209-30.607-38.54c0-20.401,7.369-37.968,31.286-37.968
			c6.346,0,12.24,0.904,17.796,2.72l-2.837,7.252c-4.759-2.039-9.517-3.511-14.959-3.511c-17.796,0-22.672,14.393-22.672,31.393
			c0,18.026,5.1,32.194,21.993,32.194c5.665,0,10.538-1.702,16.432-4.082l2.837,7.256
			C1552.795-71.483,1547.126-70.46,1539.987-70.46z"/>
		<path fill="#575756" d="M1617.758-72.386v-34.574h-34.57v34.574h-8.274v-73.336h8.274v32.189h34.57v-32.189h8.274v73.336H1617.758
			z"/>
		<path fill="#575756" d="M1646.906-72.386v-73.336h8.274v73.336H1646.906z"/>
		<path fill="#575756" d="M1676.043-72.386v-73.336h8.274v66.539h33.549v6.797H1676.043z"/>
		<path fill="#575756" d="M1729.896-72.386v-73.336h40.58v6.46h-32.306v25.729h29.921v6.463h-29.921v28.222h33.324v6.463H1729.896z"
			/>
		<path fill="#575756" d="M1832.835-72.386l-34.574-63.592v63.592h-7.591v-73.336h11.788l34.343,63.587v-63.587h8.047v73.336
			H1832.835z"/>
		<path fill="#575756" d="M1914.686-72.386l-7.816-21.874h-30.153l-8.274,21.874h-8.728l29.811-73.336h6.802l27.655,73.336H1914.686
			z M1892.47-135.295l-13.372,34.794h25.617L1892.47-135.295z"/>
	</g>
	<g>
		<path fill="#575756" d="M1981.855-72.386h-17.906v-73.336h17.906c25.39,0,35.028,9.974,35.028,36.381
			C2016.883-82.699,2006.68-72.386,1981.855-72.386z M1981.855-139.262h-9.632v60.413h10.652c17.23,0,25.392-9.18,25.392-30.378
			C2008.267-132.119,2000.898-139.262,1981.855-139.262z"/>
		<path fill="#575756" d="M2035.147-72.386v-73.336h40.578v6.46h-32.304v25.729h29.921v6.46h-29.921v28.224h33.324v6.463H2035.147z"
			/>
		<path fill="#575756" d="M2095.92-72.386v-73.336h8.272v66.534h33.552v6.802H2095.92z"/>
		<path fill="#575756" d="M2177.434-72.386v-73.336h8.274v66.534h33.549v6.802H2177.434z"/>
		<path fill="#575756" d="M2229.928-72.386v-73.336h8.274v73.336H2229.928z"/>
		<path fill="#575756" d="M2282.75-72.386h-23.686v-73.336h19.945c14.283,0,24.711,3.403,24.711,19.152
			c0,7.71-4.871,13.379-11.673,15.76c9.068,1.816,15.076,7.479,15.076,17.565C2307.123-76.468,2296.129-72.386,2282.75-72.386z
			 M2279.01-139.262h-11.671v25.958h13.258c8.052,0,14.625-3.855,14.625-13.152C2295.221-136.657,2290.121-139.262,2279.01-139.262z
			 M2280.826-106.956h-13.487v28.107h14.732c9.635,0,16.437-2.264,16.437-14.398C2298.508-104.692,2290.46-106.956,2280.826-106.956
			z"/>
		<path fill="#575756" d="M2364.945-72.386l-24.144-32.758h-7.706v32.758h-8.274v-73.336h22.894c11.676,0,23.353,4.422,23.353,19.72
			c0,10.657-4.876,19.949-20.633,20.631l24.711,32.985H2364.945z M2348.281-139.262h-15.187v27.658h15.301
			c10.655,0,14.168-6.235,14.168-14.397C2362.564-134.618,2357.464-139.262,2348.281-139.262z"/>
		<path fill="#575756" d="M2419.028-70.46c-24.373,0-31.627-16.436-31.627-38.315c0-21.647,8.279-38.198,31.738-38.198
			c23.807,0,31.061,16.209,31.061,38.198C2450.199-87.006,2442.262-70.46,2419.028-70.46z M2419.028-140.512
			c-17.455,0-23.011,12.354-23.011,31.737s5.556,31.854,23.011,31.854c17.682,0,22.557-13.038,22.557-31.854
			C2441.585-128.268,2436.368-140.512,2419.028-140.512z"/>
	</g>
</g>
</svg>
