<?xml version="1.0" encoding="utf-8"?>
<!-- Generator: Adobe Illustrator 17.0.0, SVG Export Plug-In . SVG Version: 6.00 Build 0)  -->
<!DOCTYPE svg PUBLIC "-//W3C//DTD SVG 1.1//EN" "http://www.w3.org/Graphics/SVG/1.1/DTD/svg11.dtd">
<svg version="1.1" id="Capa_1" xmlns="http://www.w3.org/2000/svg" xmlns:xlink="http://www.w3.org/1999/xlink" x="0px" y="0px"
	 width="393.751px" height="80.326px" viewBox="0 0 393.751 80.326" enable-background="new 0 0 393.751 80.326"
	 xml:space="preserve">
<g>
	<g>
		<g>
			<path fill="#FFFFFF" d="M134.727,6.227V74.11c0,2.639,2.153,4.785,4.793,4.785h7.73c2.64,0,4.786-2.145,4.786-4.785V45.782
				h13.863c2.64,0,4.787-2.146,4.787-4.792v-4.744c0-2.639-2.147-4.785-4.787-4.785h-13.863V16.2h18.937
				c2.646,0,4.793-2.145,4.793-4.785V6.227c0-2.648-2.146-4.793-4.793-4.793H139.52C136.88,1.433,134.727,3.579,134.727,6.227z"/>
			<path fill="#FFFFFF" d="M183.955,6.227V6.56c0,2.764,1.932,5.192,4.6,5.77l2.797,0.602v54.584l-2.797,0.592
				c-2.668,0.587-4.6,3.007-4.6,5.775v0.228c0,2.639,2.153,4.785,4.791,4.785h22.852c2.638,0,4.785-2.145,4.785-4.785v-0.228
				c0-2.768-1.936-5.188-4.604-5.775l-2.795-0.592V12.932l2.805-0.602c2.658-0.578,4.594-3.006,4.594-5.77V6.227
				c0-2.648-2.147-4.793-4.785-4.793h-22.852C186.108,1.433,183.955,3.579,183.955,6.227z"/>
			<path fill="#FFFFFF" d="M228.769,6.227V74.11c0,2.639,2.144,4.785,4.794,4.785h31.01c2.638,0,4.793-2.145,4.793-4.785v-5.31
				c0-2.639-2.155-4.787-4.793-4.787h-18.721V6.227c0-2.648-2.145-4.793-4.785-4.793h-7.504
				C230.913,1.433,228.769,3.579,228.769,6.227z"/>
			<path fill="#FFFFFF" d="M279.753,22.892c0,7.349,1.822,12.592,5.736,16.516c3.964,3.982,9.681,6.15,15.288,7.9
				c6.951,2.179,10,3.74,10,9.572c0,5.765-3.585,8.68-10.665,8.68c-4.74,0-9.326-1.17-13.622-3.487
				c-1.101-0.57-2.344-0.676-3.5-0.282c-1.182,0.409-2.118,1.279-2.638,2.45l-2.113,4.763c-0.24,0.635-0.36,1.293-0.36,1.963
				c0,1.975,1.052,3.728,2.745,4.574c5.846,3.036,13.509,4.785,21.033,4.785c18.297,0,27.19-8.102,27.19-24.76
				c0-16.743-10.014-21.113-23.103-25.08c-6.798-2.158-8.461-3.917-8.461-8.922c0-4.518,2.921-6.91,8.461-6.91
				c3.953,0,6.731,0.473,9.56,1.623c1.158,0.524,2.463,0.56,3.662,0.107c1.2-0.458,2.161-1.342,2.678-2.492l2.102-4.311
				c0.273-0.621,0.417-1.287,0.417-1.97c0-1.878-1.057-3.591-2.705-4.376C316.509,0.997,311.262,0,304.42,0
				C288.516,0,279.753,8.131,279.753,22.892z"/>
			<path fill="#FFFFFF" d="M354.946,5.9l-19.427,68.316c-0.115,0.344-0.171,0.705-0.171,1.058c0,1.998,1.673,3.621,3.729,3.621
				h8.053c2.769,0,5.196-1.934,5.775-4.596l2.687-10.968h17.411l2.461,10.961c0.588,2.669,3.006,4.604,5.784,4.604h8.709
				c2.095,0,3.795-1.711,3.795-3.815c0-0.31-0.034-0.636-0.119-0.965L375.092,6.02c-0.694-2.652-3.166-4.587-5.88-4.587h-8.28
				C358.212,1.433,355.63,3.352,354.946,5.9z M364.617,24.1c0.491,3.903,1.184,8.28,2.461,13.558l2.879,12.45h-11.086l3.083-12.442
				C363.392,32.075,364.106,27.706,364.617,24.1z"/>
		</g>
		<path fill="#FFFFFF" d="M0.586,7.695l19.961,32.213l0.048,0.093l-0.048,0.094L0.586,72.309c-1.829,3.359,1.015,5.874,3.197,5.874
			h46.976c1.262,0,2.442-0.729,3.14-1.787l22.467-34.324c0.381-0.56,0.608-1.302,0.615-2.071c-0.007-0.769-0.234-1.51-0.615-2.069
			L53.899,3.608c-0.699-1.06-1.878-1.788-3.14-1.788H3.782C1.601,1.819-1.243,4.334,0.586,7.695z M48.732,9.698l20.004,30.303
			L48.732,70.306h-38.2l17.596-28.263c0.367-0.593,0.557-1.266,0.557-1.97c0-0.021,0-0.051-0.006-0.072
			c0.006-0.021,0.006-0.05,0.006-0.05c0-0.727-0.19-1.398-0.557-1.991L10.532,9.698H48.732z"/>
	</g>
	<g>
		<path fill="#FFFFFF" d="M112.729,76.861c0,0.674-0.552,1.224-1.224,1.224h-1.469c-0.735,0-1.529-0.367-1.988-0.948
			c-4.346-5.509-6.212-7.161-8.661-7.161c-2.049,0-2.814,0.888-2.814,2.602c0,1.285,0.245,2.264,0.704,3.305
			c0.274,0.612-0.031,1.316-0.643,1.56L95.5,77.872c-0.643,0.245-1.346-0.031-1.653-0.644c-0.642-1.315-1.131-2.938-1.131-5.202
			c0-4.437,2.081-6.885,6.12-6.885c3.795,0,6.181,1.713,10.252,7.773v-6.917c0-0.672,0.55-1.224,1.224-1.224h1.194
			c0.672,0,1.224,0.552,1.224,1.224V76.861z"/>
		<path fill="#FFFFFF" d="M113.095,50.235c0,4.957-2.968,8.323-10.128,8.323c-7.13,0-10.252-3.427-10.252-8.323
			c0-4.989,3.06-8.293,10.22-8.293C110.128,41.942,113.095,45.246,113.095,50.235z M109.637,50.235c0-2.448-1.591-3.458-6.762-3.458
			c-5.08,0-6.701,1.009-6.701,3.458c0,2.479,1.652,3.488,6.701,3.488C108.047,53.723,109.637,52.713,109.637,50.235z"/>
		<path fill="#FFFFFF" d="M112.729,33.613c0,0.672-0.552,1.224-1.224,1.224h-1.01c-0.672,0-1.224-0.551-1.224-1.224v-2.356H98.958
			l1.133,2.203c0.306,0.611,0.061,1.346-0.551,1.653l-0.367,0.184c-0.643,0.337-1.438,0.152-1.897-0.368l-3.428-4.039
			c-0.489-0.55-0.796-1.407-0.796-2.142v-0.735c0-0.672,0.552-1.224,1.225-1.224h14.994V24.83c0-0.674,0.552-1.224,1.224-1.224h1.01
			c0.672,0,1.224,0.55,1.224,1.224V33.613z"/>
		<path fill="#FFFFFF" d="M113.127,9.708c0,4.835-2.754,7.926-8.752,7.926c-7.221,0-11.751-3.275-13.526-10.742
			c-0.152-0.643,0.244-1.316,0.918-1.499l0.979-0.276c0.643-0.183,1.346,0.184,1.531,0.827c1.101,3.61,2.264,5.569,5.569,6.395
			c-0.611-0.979-1.04-1.958-1.04-3.489c0-4.315,2.387-6.61,6.947-6.61C110.494,2.241,113.127,5.455,113.127,9.708z M102.355,9.831
			c0,1.316,0.367,2.081,1.04,2.969c0.489,0.03,1.01,0.03,1.561,0.03c3.305,0,4.559-0.857,4.559-3.121
			c0-1.714-1.131-2.754-3.702-2.754C103.425,6.954,102.355,7.811,102.355,9.831z"/>
	</g>
</g>
</svg>
