<?xml version="1.0" encoding="utf-8"?>
<!-- Generator: Adobe Illustrator 17.0.0, SVG Export Plug-In . SVG Version: 6.00 Build 0)  -->
<!DOCTYPE svg PUBLIC "-//W3C//DTD SVG 1.1//EN" "http://www.w3.org/Graphics/SVG/1.1/DTD/svg11.dtd">
<svg version="1.1" id="Layer_1" xmlns="http://www.w3.org/2000/svg" xmlns:xlink="http://www.w3.org/1999/xlink" x="0px" y="0px"
	 width="558.391px" height="178.202px" viewBox="0 0 558.391 178.202" enable-background="new 0 0 558.391 178.202"
	 xml:space="preserve">
<g>
	<path fill="#575756" d="M358.715,76.18c-9.751,0-13.297-7.042-13.297-16.741c0-8.865,3.201-16.499,13.592-16.499
		c2.757,0,5.317,0.395,7.731,1.182l-1.232,3.154c-2.067-0.888-4.135-1.529-6.499-1.529c-7.732,0-9.85,6.255-9.85,13.643
		c0,7.828,2.216,13.984,9.555,13.984c2.461,0,4.578-0.739,7.139-1.773l1.233,3.152C364.279,75.737,361.816,76.18,358.715,76.18z"/>
	<path fill="#575756" d="M394.569,75.343l-3.395-9.505h-13.1l-3.595,9.505h-3.792l12.951-31.86h2.955l12.015,31.86H394.569z
		 M384.919,48.013l-5.811,15.118h11.129L384.919,48.013z M383.392,41.758h-2.561l4.729-5.761h3.643L383.392,41.758z"/>
	<path fill="#575756" d="M433.135,75.343V47.371l-10.883,27.972h-2.955l-10.981-27.972v27.972h-3.298v-31.86h5.514l10.391,26.837
		l10.49-26.837h5.219v31.86H433.135z"/>
	<path fill="#575756" d="M466.974,75.343l-3.396-9.505h-13.099l-3.595,9.505h-3.792l12.95-31.86h2.955l12.016,31.86H466.974z
		 M457.322,48.013l-5.811,15.118h11.13L457.322,48.013z"/>
	<path fill="#575756" d="M494.853,75.343l-10.489-14.231h-3.348v14.231h-3.595v-31.86h9.946c5.072,0,10.146,1.921,10.146,8.567
		c0,4.63-2.118,8.667-8.964,8.964l10.735,14.329H494.853z M487.613,46.289h-6.598v12.016h6.647c4.629,0,6.155-2.709,6.155-6.255
		C493.818,48.307,491.603,46.289,487.613,46.289z"/>
	<path fill="#575756" d="M527.015,75.343l-3.396-9.505h-13.1l-3.594,9.505h-3.793l12.951-31.86h2.955l12.015,31.86H527.015z
		 M517.363,48.013l-5.811,15.118h11.13L517.363,48.013z"/>
	<path fill="#575756" d="M358.715,127.078c-9.751,0-13.297-7.042-13.297-16.743c0-8.863,3.201-16.495,13.592-16.495
		c2.757,0,5.317,0.393,7.731,1.182l-1.232,3.15c-2.067-0.886-4.135-1.525-6.499-1.525c-7.732,0-9.85,6.253-9.85,13.639
		c0,7.831,2.216,13.986,9.555,13.986c2.461,0,4.578-0.739,7.139-1.774l1.233,3.152C364.279,126.634,361.816,127.078,358.715,127.078
		z"/>
	<path fill="#575756" d="M392.502,126.241v-15.021h-15.019v15.021h-3.595v-31.86h3.595v13.984h15.019V94.381h3.595v31.86H392.502z"
		/>
	<path fill="#575756" d="M405.165,126.241v-31.86h3.595v31.86H405.165z"/>
	<path fill="#575756" d="M417.823,126.241v-31.86h3.595v28.907h14.575v2.953H417.823z"/>
	<path fill="#575756" d="M441.22,126.241v-31.86h17.63v2.807h-14.035v11.178h12.999v2.808h-12.999v12.261h14.478v2.808H441.22z"/>
	<path fill="#575756" d="M485.94,126.241L470.92,98.614v27.627h-3.298v-31.86h5.121l14.92,27.625V94.381h3.496v31.86H485.94z"/>
	<path fill="#575756" d="M521.5,126.241l-3.396-9.503h-13.1l-3.595,9.503h-3.792l12.951-31.86h2.955l12.015,31.86H521.5z
		 M511.849,98.911l-5.81,15.116h11.129L511.849,98.911z"/>
	<path fill="#575756" d="M354.922,177.14h-7.779v-31.86h7.779c11.03,0,15.218,4.333,15.218,15.806
		C370.14,172.659,365.707,177.14,354.922,177.14z M354.922,148.086h-4.185v26.246h4.628c7.485,0,11.031-3.988,11.031-13.197
		C366.396,151.189,363.195,148.086,354.922,148.086z"/>
	<path fill="#575756" d="M378.074,177.14v-31.86h17.629v2.807h-14.034v11.178h12.999v2.807h-12.999v12.262h14.478v2.808H378.074z"/>
	<path fill="#575756" d="M404.477,177.14v-31.86h3.594v28.905h14.576v2.955H404.477z"/>
	<path fill="#575756" d="M439.89,177.14v-31.86h3.595v28.905h14.575v2.955H439.89z"/>
	<path fill="#575756" d="M462.695,177.14v-31.86h3.595v31.86H462.695z"/>
	<path fill="#575756" d="M485.644,177.14h-10.29v-31.86h8.665c6.205,0,10.735,1.479,10.735,8.32c0,3.35-2.116,5.812-5.071,6.847
		c3.94,0.789,6.55,3.249,6.55,7.631C496.232,175.366,491.456,177.14,485.644,177.14z M484.019,148.086h-5.07v11.277h5.76
		c3.498,0,6.354-1.675,6.354-5.714C491.061,149.218,488.846,148.086,484.019,148.086z M484.808,162.121h-5.859v12.211h6.4
		c4.186,0,7.141-0.983,7.141-6.255C492.489,163.104,488.993,162.121,484.808,162.121z"/>
	<path fill="#575756" d="M521.353,177.14l-10.489-14.231h-3.348v14.231h-3.595v-31.86h9.946c5.072,0,10.146,1.921,10.146,8.567
		c0,4.63-2.118,8.667-8.964,8.963l10.735,14.33H521.353z M514.113,148.086h-6.598v12.016h6.647c4.629,0,6.155-2.709,6.155-6.255
		C520.318,150.104,518.103,148.086,514.113,148.086z"/>
	<path fill="#575756" d="M544.849,177.977c-10.589,0-13.74-7.141-13.74-16.646c0-9.404,3.597-16.595,13.788-16.595
		c10.343,0,13.494,7.042,13.494,16.595C558.391,170.788,554.942,177.977,544.849,177.977z M544.849,147.543
		c-7.583,0-9.997,5.367-9.997,13.788s2.414,13.839,9.997,13.839c7.682,0,9.8-5.664,9.8-13.839
		C554.648,152.862,552.382,147.543,544.849,147.543z"/>
</g>
<path fill="#706F6F" d="M282.658,143.551c0,27.184,9.642,34.651,9.642,34.651H20.564c0,0-20.564-13.229-20.564-31.27
	c0-22.856,20.564-36.091,20.564-36.091H292.3C292.3,110.842,282.658,119.681,282.658,143.551z"/>
<path fill="#706F6F" d="M105.154,104.007c0,0,73.21-11.6,115.805-36.173c54.267-31.312,68.908-55.774,68.908-55.774
	s-11.949,38.693-67.569,67.545C170.704,106.367,105.154,104.007,105.154,104.007z"/>
<g>
	<polygon fill="#FFFFFF" points="283.956,129.481 28.983,129.481 28.983,127.653 284.354,127.653 283.956,129.481 	"/>
</g>
<g>
	<polygon fill="#FFFFFF" points="285.252,164.622 28.983,164.622 28.983,162.794 284.754,162.794 285.252,164.622 	"/>
</g>
<g>
	<polygon fill="#FFFFFF" points="282.69,146.877 20.664,146.877 20.664,145.049 282.658,145.049 282.69,146.877 	"/>
</g>
<path fill="#706F6F" d="M167.799,18.152c-0.895,32.187-44.945,67.495-105.057,82.13c-12.806,3.117-25.388,5.046-37.425,5.91
	l-0.017,0.054c18.843,0.668,38.578-0.368,58.755-3.317C168.299,90.601,235.718,48.643,258.284,0L167.799,18.152z"/>
</svg>
