<svg xmlns="http://www.w3.org/2000/svg" width="393.751" height="80.326" viewBox="0 0 393.751 80.326"><g fill="#FFF"><path d="M134.727 6.227V74.11c0 2.639 2.153 4.785 4.793 4.785h7.73a4.79 4.79 0 0 0 4.786-4.785V45.782h13.863a4.792 4.792 0 0 0 4.787-4.792v-4.744a4.79 4.79 0 0 0-4.787-4.785h-13.863V16.2h18.937a4.791 4.791 0 0 0 4.793-4.785V6.227a4.792 4.792 0 0 0-4.793-4.793H139.52a4.796 4.796 0 0 0-4.793 4.793zM183.955 6.227v.333c0 2.764 1.932 5.192 4.6 5.77l2.797.602v54.584l-2.797.592c-2.668.587-4.6 3.007-4.6 5.775v.228a4.795 4.795 0 0 0 4.791 4.785h22.852a4.79 4.79 0 0 0 4.785-4.785v-.228c0-2.768-1.936-5.188-4.604-5.775l-2.795-.592V12.932l2.805-.602c2.658-.578 4.594-3.006 4.594-5.77v-.333a4.791 4.791 0 0 0-4.785-4.793h-22.852a4.796 4.796 0 0 0-4.791 4.793zM228.769 6.227V74.11a4.79 4.79 0 0 0 4.794 4.785h31.01c2.638 0 4.793-2.145 4.793-4.785V68.8c0-2.639-2.155-4.787-4.793-4.787h-18.721V6.227a4.79 4.79 0 0 0-4.785-4.793h-7.504a4.79 4.79 0 0 0-4.794 4.793zM279.753 22.892c0 7.349 1.822 12.592 5.736 16.516 3.964 3.982 9.681 6.15 15.288 7.9 6.951 2.179 10 3.74 10 9.572 0 5.765-3.585 8.68-10.665 8.68-4.74 0-9.326-1.17-13.622-3.487-1.101-.57-2.344-.676-3.5-.282-1.182.409-2.118 1.279-2.638 2.45l-2.113 4.763a5.523 5.523 0 0 0-.36 1.963c0 1.975 1.052 3.728 2.745 4.574 5.846 3.036 13.509 4.785 21.033 4.785 18.297 0 27.19-8.102 27.19-24.76 0-16.743-10.014-21.113-23.103-25.08-6.798-2.158-8.461-3.917-8.461-8.922 0-4.518 2.921-6.91 8.461-6.91 3.953 0 6.731.473 9.56 1.623a4.759 4.759 0 0 0 3.662.107c1.2-.458 2.161-1.342 2.678-2.492l2.102-4.311a4.881 4.881 0 0 0 .417-1.97c0-1.878-1.057-3.591-2.705-4.376C316.509.997 311.262 0 304.42 0c-15.904 0-24.667 8.131-24.667 22.892zM354.946 5.9l-19.427 68.316a3.352 3.352 0 0 0-.171 1.058c0 1.998 1.673 3.621 3.729 3.621h8.053c2.769 0 5.196-1.934 5.775-4.596l2.687-10.968h17.411l2.461 10.961c.588 2.669 3.006 4.604 5.784 4.604h8.709c2.095 0 3.795-1.711 3.795-3.815 0-.31-.034-.636-.119-.965L375.092 6.02c-.694-2.652-3.166-4.587-5.88-4.587h-8.28c-2.72 0-5.302 1.919-5.986 4.467zm9.671 18.2c.491 3.903 1.184 8.28 2.461 13.558l2.879 12.45h-11.086l3.083-12.442c1.438-5.591 2.152-9.96 2.663-13.566zM.586 7.695l19.961 32.213.048.093-.048.094L.586 72.309c-1.829 3.359 1.015 5.874 3.197 5.874h46.976c1.262 0 2.442-.729 3.14-1.787l22.467-34.324c.381-.56.608-1.302.615-2.071-.007-.769-.234-1.51-.615-2.069L53.899 3.608c-.699-1.06-1.878-1.788-3.14-1.788H3.782C1.601 1.819-1.243 4.334.586 7.695zm48.146 2.003l20.004 30.303-20.004 30.305h-38.2l17.596-28.263a3.716 3.716 0 0 0 .557-1.97c0-.021 0-.051-.006-.072.006-.021.006-.05.006-.05a3.73 3.73 0 0 0-.557-1.991L10.532 9.698h38.2z"/><g><path d="M112.729 76.861c0 .674-.552 1.224-1.224 1.224h-1.469c-.735 0-1.529-.367-1.988-.948-4.346-5.509-6.212-7.161-8.661-7.161-2.049 0-2.814.888-2.814 2.602 0 1.285.245 2.264.704 3.305a1.17 1.17 0 0 1-.643 1.56l-1.134.429a1.311 1.311 0 0 1-1.653-.644c-.642-1.315-1.131-2.938-1.131-5.202 0-4.437 2.081-6.885 6.12-6.885 3.795 0 6.181 1.713 10.252 7.773v-6.917c0-.672.55-1.224 1.224-1.224h1.194a1.23 1.23 0 0 1 1.224 1.224v10.864zM113.095 50.235c0 4.957-2.968 8.323-10.128 8.323-7.13 0-10.252-3.427-10.252-8.323 0-4.989 3.06-8.293 10.22-8.293 7.193 0 10.16 3.304 10.16 8.293zm-3.458 0c0-2.448-1.591-3.458-6.762-3.458-5.08 0-6.701 1.009-6.701 3.458 0 2.479 1.652 3.488 6.701 3.488 5.172 0 6.762-1.01 6.762-3.488zM112.729 33.613a1.23 1.23 0 0 1-1.224 1.224h-1.01a1.229 1.229 0 0 1-1.224-1.224v-2.356H98.958l1.133 2.203a1.228 1.228 0 0 1-.551 1.653l-.367.184c-.643.337-1.438.152-1.897-.368l-3.428-4.039c-.489-.55-.796-1.407-.796-2.142v-.735a1.23 1.23 0 0 1 1.225-1.224h14.994V24.83c0-.674.552-1.224 1.224-1.224h1.01c.672 0 1.224.55 1.224 1.224v8.783zM113.127 9.708c0 4.835-2.754 7.926-8.752 7.926-7.221 0-11.751-3.275-13.526-10.742-.152-.643.244-1.316.918-1.499l.979-.276c.643-.183 1.346.184 1.531.827 1.101 3.61 2.264 5.569 5.569 6.395-.611-.979-1.04-1.958-1.04-3.489 0-4.315 2.387-6.61 6.947-6.61 4.741.001 7.374 3.215 7.374 7.468zm-10.772.123c0 1.316.367 2.081 1.04 2.969.489.03 1.01.03 1.561.03 3.305 0 4.559-.857 4.559-3.121 0-1.714-1.131-2.754-3.702-2.754-2.388-.001-3.458.856-3.458 2.876z"/></g></g></svg>