<svg xmlns="http://www.w3.org/2000/svg" width="203.588" height="124.118" viewBox="2435.884 0 203.588 124.118"><g fill="#575756"><path d="M-1278.662 238.04c-9.751 0-13.297-7.042-13.297-16.741 0-8.865 3.201-16.499 13.592-16.499 2.757 0 5.317.395 7.731 1.182l-1.232 3.154c-2.067-.888-4.135-1.529-6.499-1.529-7.731 0-9.85 6.255-9.85 13.643 0 7.828 2.216 13.984 9.555 13.984 2.461 0 4.578-.739 7.139-1.773l1.232 3.152c-2.806.985-5.269 1.427-8.371 1.427zM-1242.807 237.204l-3.396-9.505h-13.1l-3.595 9.505h-3.792l12.951-31.86h2.955l12.015 31.86h-4.038zm-9.651-27.331l-5.811 15.118h11.129l-5.318-15.118zm-1.527-6.254h-2.561l4.729-5.761h3.643l-5.811 5.761zM-1204.242 237.204v-27.972l-10.883 27.972h-2.955l-10.981-27.972v27.972h-3.298v-31.86h5.514l10.391 26.837 10.49-26.837h5.219v31.86h-3.497zM-1170.403 237.204l-3.396-9.505h-13.099l-3.595 9.505h-3.792l12.95-31.86h2.955l12.016 31.86h-4.039zm-9.651-27.331l-5.811 15.118h11.13l-5.319-15.118zM-1142.524 237.204l-10.489-14.232h-3.348v14.232h-3.595v-31.86h9.946c5.072 0 10.146 1.921 10.146 8.567 0 4.63-2.118 8.667-8.964 8.964l10.735 14.329h-4.431zm-7.239-29.054h-6.598v12.016h6.647c4.629 0 6.155-2.709 6.155-6.255.001-3.744-2.215-5.761-6.204-5.761zM-1110.362 237.204l-3.396-9.505h-13.1l-3.594 9.505h-3.793l12.951-31.86h2.955l12.015 31.86h-4.038zm-9.651-27.331l-5.811 15.118h11.13l-5.319-15.118zM-1278.662 288.939c-9.751 0-13.297-7.042-13.297-16.743 0-8.863 3.201-16.495 13.592-16.495 2.757 0 5.317.393 7.731 1.182l-1.232 3.15c-2.067-.886-4.135-1.525-6.499-1.525-7.731 0-9.85 6.253-9.85 13.639 0 7.831 2.216 13.986 9.555 13.986 2.461 0 4.578-.739 7.139-1.773l1.232 3.152c-2.806.983-5.269 1.427-8.371 1.427zM-1244.875 288.102v-15.021h-15.019v15.021h-3.595v-31.86h3.595v13.984h15.019v-13.984h3.595v31.86h-3.595zM-1232.211 288.102v-31.86h3.595v31.86h-3.595zM-1219.553 288.102v-31.86h3.595v28.907h14.575v2.953h-18.17zM-1196.157 288.102v-31.86h17.63v2.807h-14.035v11.178h12.999v2.808h-12.999v12.261h14.478v2.808h-18.073v-.002zM-1151.436 288.102l-15.021-27.627v27.627h-3.298v-31.86h5.121l14.92 27.625v-27.625h3.496v31.86h-5.218zM-1115.876 288.102l-3.396-9.503h-13.1l-3.595 9.503h-3.792l12.951-31.86h2.955l12.015 31.86h-4.038zm-9.652-27.33l-5.81 15.116h11.129l-5.319-15.116zM-1282.455 339h-7.779v-31.86h7.779c11.03 0 15.218 4.333 15.218 15.806 0 11.574-4.432 16.054-15.218 16.054zm0-29.053h-4.185v26.246h4.628c7.485 0 11.031-3.988 11.031-13.197.001-9.946-3.2-13.049-11.474-13.049zM-1259.302 339v-31.86h17.629v2.807h-14.034v11.178h12.999v2.807h-12.999v12.262h14.478V339h-18.073zM-1232.9 339v-31.86h3.594v28.905h14.576V339h-18.17zM-1197.487 339v-31.86h3.595v28.905h14.575V339h-18.17zM-1174.681 339v-31.86h3.595V339h-3.595zM-1151.733 339h-10.29v-31.86h8.665c6.205 0 10.735 1.479 10.735 8.32 0 3.35-2.116 5.812-5.071 6.847 3.939.789 6.55 3.249 6.55 7.631 0 7.289-4.776 9.062-10.589 9.062zm-1.625-29.053h-5.07v11.277h5.76c3.498 0 6.354-1.675 6.354-5.714-.001-4.431-2.217-5.563-7.044-5.563zm.789 14.035h-5.859v12.211h6.4c4.186 0 7.141-.983 7.141-6.255 0-4.973-3.496-5.956-7.682-5.956zM-1116.024 339l-10.489-14.231h-3.348V339h-3.595v-31.86h9.946c5.072 0 10.146 1.921 10.146 8.567 0 4.63-2.118 8.667-8.964 8.963l10.735 14.33h-4.431zm-7.239-29.053h-6.598v12.016h6.647c4.629 0 6.155-2.709 6.155-6.255.001-3.744-2.215-5.761-6.204-5.761zM-1092.528 339.837c-10.589 0-13.74-7.141-13.74-16.646 0-9.404 3.597-16.595 13.788-16.595 10.343 0 13.494 7.042 13.494 16.595 0 9.458-3.448 16.646-13.542 16.646zm0-30.433c-7.583 0-9.997 5.367-9.997 13.788s2.414 13.839 9.997 13.839c7.682 0 9.8-5.664 9.8-13.839 0-8.469-2.267-13.788-9.8-13.788z"/></g><path fill="#1D71B8" d="M-1354.719 305.412c0 27.184 9.642 34.651 9.642 34.651h-271.735s-20.564-13.228-20.564-31.269c0-22.855 20.564-36.091 20.564-36.091h271.735s-9.642 8.838-9.642 32.709zM-1532.222 265.868s73.209-11.6 115.805-36.173c54.267-31.312 68.908-55.774 68.908-55.774s-11.949 38.693-67.569 67.545c-51.595 26.762-117.144 24.402-117.144 24.402z"/><path fill="#FFF" d="M-1353.421 291.342h-254.973v-1.828h255.372zM-1352.125 326.483h-256.269v-1.828h255.771zM-1354.687 308.738h-262.026v-1.828h261.994z"/><path fill="#1D71B8" d="M-1469.577 180.013c-.895 32.186-44.945 67.495-105.057 82.13-12.806 3.117-25.388 5.046-37.425 5.91l-.017.054c18.843.668 38.578-.368 58.755-3.317 84.244-12.328 151.662-54.286 174.229-102.929l-90.485 18.152z"/><g fill="#575756"><path d="M-420.592 260.533c-9.751 0-13.297-7.042-13.297-16.741 0-8.865 3.201-16.499 13.592-16.499 2.757 0 5.317.395 7.731 1.182l-1.232 3.154c-2.067-.888-4.135-1.529-6.499-1.529-7.731 0-9.85 6.255-9.85 13.643 0 7.828 2.216 13.984 9.555 13.984 2.461 0 4.578-.739 7.139-1.773l1.232 3.152c-2.806.984-5.269 1.427-8.371 1.427zM-384.737 259.696l-3.396-9.505h-13.1l-3.595 9.505h-3.792l12.951-31.86h2.955l12.015 31.86h-4.038zm-9.651-27.33l-5.811 15.118h11.129l-5.318-15.118zm-1.527-6.255h-2.56l4.728-5.761h3.643l-5.811 5.761zM-346.172 259.696v-27.972l-10.883 27.972h-2.955l-10.982-27.972v27.972h-3.298v-31.86h5.514l10.391 26.837 10.49-26.837h5.219v31.86h-3.496zM-312.333 259.696l-3.396-9.505h-13.099l-3.595 9.505h-3.792l12.95-31.86h2.955l12.016 31.86h-4.039zm-9.651-27.33l-5.811 15.118h11.13l-5.319-15.118zM-284.454 259.696l-10.489-14.232h-3.348v14.232h-3.595v-31.86h9.946c5.072 0 10.145 1.921 10.145 8.567 0 4.63-2.118 8.667-8.964 8.964l10.735 14.329h-4.43zm-7.239-29.054h-6.598v12.016h6.648c4.629 0 6.155-2.709 6.155-6.255 0-3.744-2.216-5.761-6.205-5.761zM-252.292 259.696l-3.396-9.505h-13.1l-3.594 9.505h-3.793l12.951-31.86h2.955l12.015 31.86h-4.038zm-9.651-27.33l-5.811 15.118h11.13l-5.319-15.118zM-420.592 311.431c-9.751 0-13.297-7.042-13.297-16.743 0-8.863 3.201-16.495 13.592-16.495 2.757 0 5.317.393 7.731 1.182l-1.232 3.15c-2.067-.886-4.135-1.525-6.499-1.525-7.731 0-9.85 6.253-9.85 13.639 0 7.831 2.216 13.986 9.555 13.986 2.461 0 4.578-.739 7.139-1.773l1.232 3.152c-2.806.983-5.269 1.427-8.371 1.427zM-386.805 310.594v-15.021h-15.019v15.021h-3.595v-31.86h3.595v13.984h15.019v-13.984h3.595v31.86h-3.595zM-374.141 310.594v-31.86h3.595v31.86h-3.595zM-361.483 310.594v-31.86h3.595v28.907h14.575v2.953h-18.17zM-338.087 310.594v-31.86h17.63v2.807h-14.035v11.178h12.999v2.808h-12.999v12.261h14.477v2.808h-18.072v-.002zM-293.366 310.594l-15.021-27.627v27.627h-3.298v-31.86h5.121l14.92 27.625v-27.625h3.496v31.86h-5.218zM-257.807 310.594l-3.396-9.503h-13.1l-3.595 9.503h-3.792l12.951-31.86h2.955l12.015 31.86h-4.038zm-9.651-27.33l-5.81 15.116h11.129l-5.319-15.116zM-424.385 361.492h-7.779v-31.86h7.779c11.03 0 15.218 4.333 15.218 15.806 0 11.574-4.433 16.054-15.218 16.054zm0-29.053h-4.185v26.246h4.628c7.485 0 11.031-3.988 11.031-13.197.001-9.946-3.2-13.049-11.474-13.049zM-401.232 361.492v-31.86h17.629v2.807h-14.034v11.178h12.999v2.807h-12.999v12.262h14.478v2.808h-18.073v-.002zM-374.83 361.492v-31.86h3.594v28.905h14.576v2.955h-18.17zM-339.417 361.492v-31.86h3.595v28.905h14.575v2.955h-18.17zM-316.611 361.492v-31.86h3.595v31.86h-3.595zM-293.663 361.492h-10.29v-31.86h8.665c6.205 0 10.735 1.479 10.735 8.32 0 3.35-2.116 5.812-5.071 6.847 3.939.789 6.55 3.249 6.55 7.631 0 7.289-4.776 9.062-10.589 9.062zm-1.625-29.053h-5.07v11.277h5.76c3.498 0 6.353-1.675 6.353-5.714 0-4.431-2.216-5.563-7.043-5.563zm.789 14.035h-5.859v12.211h6.4c4.186 0 7.141-.983 7.141-6.255 0-4.973-3.496-5.956-7.682-5.956zM-257.954 361.492l-10.489-14.231h-3.348v14.231h-3.595v-31.86h9.946c5.072 0 10.145 1.921 10.145 8.567 0 4.63-2.118 8.667-8.964 8.963l10.735 14.33h-4.43zm-7.239-29.053h-6.598v12.016h6.648c4.629 0 6.155-2.709 6.155-6.255 0-3.744-2.216-5.761-6.205-5.761zM-234.458 362.329c-10.589 0-13.74-7.141-13.74-16.646 0-9.404 3.597-16.595 13.788-16.595 10.343 0 13.494 7.042 13.494 16.595 0 9.458-3.448 16.646-13.542 16.646zm0-30.433c-7.583 0-9.997 5.367-9.997 13.788s2.414 13.839 9.997 13.839c7.682 0 9.8-5.664 9.8-13.839 0-8.469-2.267-13.788-9.8-13.788z"/></g><path fill="#1D71B8" d="M-496.649 327.904c0 27.184 9.642 34.651 9.642 34.651h-271.735s-20.565-13.228-20.565-31.269c0-22.855 20.565-36.091 20.565-36.091h271.735s-9.642 8.838-9.642 32.709zM-674.152 288.36s73.21-11.6 115.805-36.173c54.267-31.312 68.908-55.774 68.908-55.774s-11.949 38.693-67.569 67.545c-51.595 26.762-117.144 24.402-117.144 24.402z"/><path fill="#FFF" d="M-495.351 313.834h-254.973v-1.828h255.371zM-494.055 348.975h-256.269v-1.828h255.771zM-496.617 331.23h-262.026v-1.828h261.994z"/><path fill="#1D71B8" d="M-611.507 202.505c-.895 32.186-44.945 67.495-105.057 82.13-12.806 3.117-25.388 5.046-37.425 5.91l-.017.054c18.843.668 38.578-.368 58.755-3.317 84.244-12.328 151.662-54.286 174.229-102.929l-90.485 18.152z"/><g><path fill="#1D71B8" d="M196.872 99.983c0 18.933 6.716 24.135 6.716 24.135H14.323S0 114.904 0 102.339C0 86.42 14.323 77.201 14.323 77.201h189.264s-6.715 6.157-6.715 22.782zM73.24 72.441s50.991-8.079 80.658-25.194C191.695 25.438 201.893 8.4 201.893 8.4s-8.322 26.95-47.062 47.045C118.895 74.085 73.24 72.441 73.24 72.441z"/><path fill="#FFF" d="M197.775 90.184H20.187v-1.273h177.866zM198.678 114.659H20.187v-1.273h178.145zM196.894 102.3H14.392v-1.273h182.48z"/><path fill="#1D71B8" d="M116.872 12.643c-.623 22.418-31.304 47.01-73.172 57.204-8.92 2.171-17.683 3.514-26.067 4.116l-.012.037c13.124.465 26.869-.256 40.923-2.311C117.221 63.103 164.178 33.88 179.895 0l-63.023 12.643z"/></g><g fill="#575756"><path d="M293.421 108.305c-22.445 0-30.607-16.209-30.607-38.535 0-20.406 7.369-37.978 31.286-37.978 6.346 0 12.24.908 17.796 2.72l-2.837 7.261c-4.759-2.043-9.517-3.52-14.959-3.52-17.796 0-22.672 14.398-22.672 31.402 0 18.019 5.1 32.189 21.993 32.189 5.665 0 10.538-1.701 16.432-4.082l2.837 7.256c-6.461 2.269-12.13 3.287-19.269 3.287zM375.95 106.379l-7.816-21.878h-30.153l-8.274 21.878h-8.728l29.811-73.336h6.802l27.655 73.336h-9.297zM353.737 43.47l-13.375 34.799h25.617L353.737 43.47zm-3.515-14.397h-5.894l10.884-13.26h8.385l-13.375 13.26zM464.721 106.379V41.994l-25.05 64.385h-6.802l-25.277-64.385v64.385H400V33.043h12.691l23.917 61.773 24.146-61.773h12.013v73.336h-8.046zM542.611 106.379l-7.818-21.878h-30.151l-8.274 21.878h-8.728l29.809-73.336h6.802l27.657 73.336h-9.297zM520.395 43.47L507.02 78.269h25.619L520.395 43.47zM606.783 106.379l-24.144-32.758h-7.706v32.758h-8.274V33.043h22.894c11.675 0 23.353 4.422 23.353 19.72 0 10.657-4.876 19.95-20.633 20.633l24.711 32.983h-10.201zm-16.664-66.876h-15.187v27.658h15.301c10.655 0 14.168-6.236 14.168-14.398.001-8.616-5.099-13.26-14.282-13.26zM680.813 106.379l-7.818-21.878h-30.153l-8.272 21.878h-8.731l29.811-73.336h6.802l27.655 73.336h-9.294zM658.598 43.47l-13.375 34.799h25.619L658.598 43.47z"/><g><path d="M760.68 108.305c-22.445 0-30.607-16.209-30.607-38.54 0-20.401 7.369-37.968 31.286-37.968 6.346 0 12.24.904 17.796 2.72l-2.837 7.252c-4.759-2.039-9.518-3.511-14.959-3.511-17.796 0-22.672 14.393-22.672 31.393 0 18.026 5.1 32.194 21.993 32.194 5.665 0 10.538-1.702 16.432-4.082l2.837 7.256c-6.461 2.264-12.13 3.286-19.269 3.286zM838.451 106.379V71.805h-34.57v34.574h-8.274V33.043h8.274v32.189h34.57V33.043h8.274v73.336h-8.274zM867.599 106.379V33.043h8.274v73.336h-8.274zM896.736 106.379V33.043h8.274v66.539h33.549v6.797h-41.823zM950.59 106.379V33.043h40.581v6.46h-32.306v25.729h29.921v6.463h-29.921v28.222h33.324v6.463l-41.599-.001zM1053.528 106.379l-34.574-63.592v63.592h-7.591V33.043h11.788l34.343 63.587V33.043h8.047v73.336h-12.013zM1135.379 106.379l-7.816-21.874h-30.153l-8.274 21.874h-8.729l29.811-73.336h6.802l27.655 73.336h-9.296zm-22.215-62.909l-13.372 34.794h25.616l-12.244-34.794z"/></g><g><path d="M1202.548 106.379h-17.906V33.043h17.906c25.39 0 35.028 9.974 35.028 36.381.001 26.642-10.203 36.955-35.028 36.955zm0-66.876h-9.632v60.413h10.653c17.23 0 25.392-9.18 25.392-30.378-.001-22.891-7.369-30.035-26.413-30.035zM1255.84 106.379V33.043h40.578v6.46h-32.304v25.729h29.921v6.46h-29.921v28.224h33.324v6.463h-41.598zM1316.613 106.379V33.043h8.272v66.534h33.552v6.802h-41.824zM1398.127 106.379V33.043h8.274v66.534h33.549v6.802h-41.823zM1450.621 106.379V33.043h8.274v73.336h-8.274zM1503.443 106.379h-23.686V33.043h19.945c14.283 0 24.711 3.403 24.711 19.152 0 7.71-4.871 13.379-11.673 15.76 9.068 1.816 15.076 7.479 15.076 17.565.001 16.777-10.993 20.859-24.373 20.859zm-3.74-66.876h-11.671v25.958h13.258c8.052 0 14.625-3.855 14.625-13.152-.001-10.2-5.101-12.806-16.212-12.806zm1.816 32.306h-13.487v28.107h14.732c9.635 0 16.437-2.264 16.437-14.398 0-11.445-8.047-13.709-17.682-13.709zM1585.638 106.379l-24.144-32.758h-7.706v32.758h-8.274V33.043h22.894c11.675 0 23.353 4.422 23.353 19.72 0 10.657-4.876 19.949-20.633 20.631l24.711 32.985h-10.201zm-16.663-66.876h-15.187v27.658h15.301c10.655 0 14.168-6.235 14.168-14.397.001-8.617-5.099-13.261-14.282-13.261zM1639.722 108.305c-24.373 0-31.627-16.436-31.627-38.315 0-21.647 8.279-38.198 31.737-38.198 23.807 0 31.061 16.209 31.061 38.198 0 21.769-7.938 38.315-31.171 38.315zm0-70.052c-17.455 0-23.011 12.354-23.011 31.737s5.557 31.854 23.011 31.854c17.682 0 22.557-13.038 22.557-31.854 0-19.493-5.217-31.737-22.557-31.737z"/></g></g><path fill="#8E8E8E" d="M2632.756 99.983c0 18.933 6.716 24.135 6.716 24.135h-189.265s-14.323-9.214-14.323-21.779c0-15.919 14.323-25.138 14.323-25.138h189.264s-6.715 6.157-6.715 22.782zM2509.124 72.441s50.991-8.079 80.658-25.194c37.797-21.809 47.995-38.847 47.995-38.847s-8.322 26.95-47.062 47.045c-35.936 18.64-81.591 16.996-81.591 16.996z"/><g><path fill="none" stroke="#FFF" stroke-miterlimit="10" d="M2633.659 90.184h-177.588v-1.273h177.866z"/></g><g><path fill="none" stroke="#FFF" stroke-miterlimit="10" d="M2634.562 114.659h-178.491v-1.273h178.145z"/></g><g><path fill="none" stroke="#FFF" stroke-miterlimit="10" d="M2632.778 102.3h-182.502v-1.273h182.48z"/></g><path fill="#8E8E8E" d="M2552.756 12.643c-.623 22.418-31.304 47.01-73.172 57.204-8.92 2.171-17.683 3.514-26.067 4.116l-.012.037c13.124.465 26.869-.256 40.923-2.311C2553.105 63.103 2600.062 33.88 2615.779 0l-63.023 12.643z"/></svg>