<?xml version="1.0" encoding="utf-8"?>
<!-- Generator: Adobe Illustrator 17.0.0, SVG Export Plug-In . SVG Version: 6.00 Build 0)  -->
<!DOCTYPE svg PUBLIC "-//W3C//DTD SVG 1.1//EN" "http://www.w3.org/Graphics/SVG/1.1/DTD/svg11.dtd">
<svg version="1.1" id="Layer_1" xmlns="http://www.w3.org/2000/svg" xmlns:xlink="http://www.w3.org/1999/xlink" x="0px" y="0px"
	 width="292.3px" height="178.202px" viewBox="0 0 292.3 178.202" enable-background="new 0 0 292.3 178.202" xml:space="preserve">
<g>
	<g>
		<path fill="#575756" d="M-1210.63,262.651c-9.751,0-13.297-7.042-13.297-16.741c0-8.865,3.201-16.499,13.592-16.499
			c2.757,0,5.317,0.395,7.731,1.182l-1.232,3.154c-2.067-0.888-4.135-1.529-6.499-1.529c-7.731,0-9.85,6.255-9.85,13.643
			c0,7.828,2.216,13.984,9.555,13.984c2.461,0,4.578-0.739,7.139-1.773l1.232,3.152
			C-1205.066,262.209-1207.529,262.651-1210.63,262.651z"/>
		<path fill="#575756" d="M-1174.776,261.814l-3.396-9.505h-13.1l-3.595,9.505h-3.792l12.951-31.86h2.955l12.015,31.86H-1174.776z
			 M-1184.426,234.484l-5.811,15.118h11.129L-1184.426,234.484z M-1185.953,228.229h-2.561l4.729-5.761h3.643L-1185.953,228.229z"/>
		<path fill="#575756" d="M-1136.21,261.814v-27.972l-10.883,27.972h-2.955l-10.981-27.972v27.972h-3.298v-31.86h5.514
			l10.391,26.837l10.49-26.837h5.219v31.86H-1136.21z"/>
		<path fill="#575756" d="M-1102.371,261.814l-3.396-9.505h-13.099l-3.595,9.505h-3.792l12.95-31.86h2.955l12.016,31.86H-1102.371z
			 M-1112.023,234.484l-5.811,15.118h11.13L-1112.023,234.484z"/>
		<path fill="#575756" d="M-1074.492,261.814l-10.489-14.231h-3.348v14.231h-3.595v-31.86h9.946c5.072,0,10.146,1.921,10.146,8.567
			c0,4.63-2.118,8.667-8.964,8.964l10.735,14.329H-1074.492z M-1081.732,232.76h-6.598v12.016h6.647
			c4.629,0,6.155-2.709,6.155-6.255C-1075.527,234.778-1077.742,232.76-1081.732,232.76z"/>
		<path fill="#575756" d="M-1042.33,261.814l-3.396-9.505h-13.1l-3.594,9.505h-3.793l12.951-31.86h2.955l12.015,31.86H-1042.33z
			 M-1051.982,234.484l-5.811,15.118h11.13L-1051.982,234.484z"/>
		<path fill="#575756" d="M-1210.63,313.549c-9.751,0-13.297-7.042-13.297-16.743c0-8.863,3.201-16.495,13.592-16.495
			c2.757,0,5.317,0.393,7.731,1.182l-1.232,3.15c-2.067-0.886-4.135-1.525-6.499-1.525c-7.731,0-9.85,6.253-9.85,13.639
			c0,7.831,2.216,13.986,9.555,13.986c2.461,0,4.578-0.739,7.139-1.773l1.232,3.152
			C-1205.066,313.105-1207.529,313.549-1210.63,313.549z"/>
		<path fill="#575756" d="M-1176.843,312.713v-15.021h-15.019v15.021h-3.595v-31.86h3.595v13.984h15.019v-13.984h3.595v31.86
			H-1176.843z"/>
		<path fill="#575756" d="M-1164.18,312.713v-31.86h3.595v31.86H-1164.18z"/>
		<path fill="#575756" d="M-1151.522,312.713v-31.86h3.595v28.907h14.575v2.953H-1151.522z"/>
		<path fill="#575756" d="M-1128.125,312.713v-31.86h17.63v2.807h-14.035v11.178h12.999v2.808h-12.999v12.261h14.478v2.808
			H-1128.125z"/>
		<path fill="#575756" d="M-1083.405,312.713l-15.021-27.627v27.627h-3.298v-31.86h5.121l14.92,27.625v-27.625h3.496v31.86
			H-1083.405z"/>
		<path fill="#575756" d="M-1047.845,312.713l-3.396-9.503h-13.1l-3.595,9.503h-3.792l12.951-31.86h2.955l12.015,31.86H-1047.845z
			 M-1057.496,285.382l-5.81,15.116h11.129L-1057.496,285.382z"/>
		<path fill="#575756" d="M-1214.423,363.611h-7.779v-31.86h7.779c11.03,0,15.218,4.333,15.218,15.806
			C-1199.205,359.131-1203.638,363.611-1214.423,363.611z M-1214.423,334.557h-4.185v26.246h4.628
			c7.485,0,11.031-3.988,11.031-13.197C-1202.948,337.661-1206.15,334.557-1214.423,334.557z"/>
		<path fill="#575756" d="M-1191.271,363.611v-31.86h17.629v2.807h-14.034v11.178h12.999v2.807h-12.999v12.262h14.478v2.808
			H-1191.271z"/>
		<path fill="#575756" d="M-1164.868,363.611v-31.86h3.594v28.905h14.576v2.955H-1164.868z"/>
		<path fill="#575756" d="M-1129.455,363.611v-31.86h3.595v28.905h14.575v2.955H-1129.455z"/>
		<path fill="#575756" d="M-1106.65,363.611v-31.86h3.595v31.86H-1106.65z"/>
		<path fill="#575756" d="M-1083.701,363.611h-10.29v-31.86h8.665c6.205,0,10.735,1.479,10.735,8.32c0,3.35-2.116,5.812-5.071,6.847
			c3.939,0.789,6.55,3.249,6.55,7.631C-1073.113,361.838-1077.889,363.611-1083.701,363.611z M-1085.326,334.557h-5.07v11.277h5.76
			c3.498,0,6.354-1.675,6.354-5.714C-1078.283,335.689-1080.499,334.557-1085.326,334.557z M-1084.537,348.592h-5.859v12.211h6.4
			c4.186,0,7.141-0.983,7.141-6.255C-1076.856,349.576-1080.352,348.592-1084.537,348.592z"/>
		<path fill="#575756" d="M-1047.992,363.611l-10.489-14.231h-3.348v14.231h-3.595v-31.86h9.946c5.072,0,10.146,1.921,10.146,8.567
			c0,4.63-2.118,8.667-8.964,8.963l10.735,14.33H-1047.992z M-1055.232,334.557h-6.598v12.016h6.647
			c4.629,0,6.155-2.709,6.155-6.255C-1049.027,336.575-1051.242,334.557-1055.232,334.557z"/>
		<path fill="#575756" d="M-1024.496,364.448c-10.589,0-13.74-7.141-13.74-16.646c0-9.404,3.597-16.595,13.788-16.595
			c10.343,0,13.494,7.042,13.494,16.595C-1010.954,357.259-1014.403,364.448-1024.496,364.448z M-1024.496,334.014
			c-7.583,0-9.997,5.367-9.997,13.788s2.414,13.839,9.997,13.839c7.682,0,9.8-5.664,9.8-13.839
			C-1014.696,339.334-1016.963,334.014-1024.496,334.014z"/>
	</g>
	<g>
		<path fill="#1D71B8" d="M-1286.687,330.022c0,27.184,9.642,34.651,9.642,34.651h-271.735c0,0-20.564-13.228-20.564-31.269
			c0-22.855,20.564-36.091,20.564-36.091h271.735C-1277.045,297.313-1286.687,306.152-1286.687,330.022z"/>
		<path fill="#1D71B8" d="M-1464.191,290.478c0,0,73.209-11.6,115.805-36.173c54.267-31.312,68.908-55.774,68.908-55.774
			s-11.949,38.693-67.569,67.545C-1398.641,292.839-1464.191,290.478-1464.191,290.478z"/>
		<g>
			<polygon fill="#FFFFFF" points="-1285.389,315.953 -1540.362,315.953 -1540.362,314.125 -1284.991,314.125 -1285.389,315.953 			
				"/>
		</g>
		<g>
			<polygon fill="#FFFFFF" points="-1284.093,351.093 -1540.362,351.093 -1540.362,349.265 -1284.591,349.265 -1284.093,351.093 			
				"/>
		</g>
		<g>
			<polygon fill="#FFFFFF" points="-1286.655,333.348 -1548.681,333.348 -1548.681,331.52 -1286.687,331.52 -1286.655,333.348 			
				"/>
		</g>
		<path fill="#1D71B8" d="M-1401.546,204.624c-0.895,32.186-44.945,67.495-105.057,82.13c-12.806,3.117-25.388,5.046-37.425,5.91
			l-0.017,0.054c18.843,0.668,38.578-0.368,58.755-3.317c84.244-12.328,151.662-54.286,174.229-102.929L-1401.546,204.624z"/>
	</g>
</g>
<g>
	<path fill="#575756" d="M-352.56,285.143c-9.751,0-13.297-7.042-13.297-16.741c0-8.865,3.201-16.499,13.592-16.499
		c2.757,0,5.317,0.395,7.731,1.182l-1.232,3.154c-2.067-0.888-4.135-1.529-6.499-1.529c-7.732,0-9.85,6.255-9.85,13.643
		c0,7.828,2.216,13.984,9.555,13.984c2.461,0,4.578-0.739,7.139-1.773l1.233,3.152C-346.996,284.701-349.459,285.143-352.56,285.143
		z"/>
	<path fill="#575756" d="M-316.706,284.306l-3.396-9.505h-13.1l-3.595,9.505h-3.792l12.951-31.86h2.955l12.015,31.86H-316.706z
		 M-326.356,256.976l-5.811,15.118h11.129L-326.356,256.976z M-327.883,250.721h-2.561l4.729-5.761h3.643L-327.883,250.721z"/>
	<path fill="#575756" d="M-278.14,284.306v-27.972l-10.883,27.972h-2.955l-10.982-27.972v27.972h-3.298v-31.86h5.514l10.391,26.837
		l10.49-26.837h5.219v31.86H-278.14z"/>
	<path fill="#575756" d="M-244.301,284.306l-3.396-9.505h-13.099l-3.595,9.505h-3.792l12.95-31.86h2.955l12.016,31.86H-244.301z
		 M-253.953,256.976l-5.811,15.118h11.13L-253.953,256.976z"/>
	<path fill="#575756" d="M-216.422,284.306l-10.489-14.232h-3.348v14.232h-3.595v-31.86h9.946c5.072,0,10.145,1.921,10.145,8.567
		c0,4.63-2.118,8.667-8.964,8.964l10.735,14.329H-216.422z M-223.662,255.252h-6.598v12.016h6.647c4.629,0,6.155-2.709,6.155-6.255
		C-217.457,257.27-219.672,255.252-223.662,255.252z"/>
	<path fill="#575756" d="M-184.26,284.306l-3.396-9.505h-13.1l-3.594,9.505h-3.793l12.951-31.86h2.955l12.015,31.86H-184.26z
		 M-193.912,256.976l-5.811,15.118h11.13L-193.912,256.976z"/>
	<path fill="#575756" d="M-352.56,336.042c-9.751,0-13.297-7.042-13.297-16.743c0-8.863,3.201-16.495,13.592-16.495
		c2.757,0,5.317,0.393,7.731,1.182l-1.232,3.15c-2.067-0.886-4.135-1.525-6.499-1.525c-7.732,0-9.85,6.253-9.85,13.639
		c0,7.831,2.216,13.986,9.555,13.986c2.461,0,4.578-0.739,7.139-1.773l1.233,3.152C-346.996,335.597-349.459,336.042-352.56,336.042
		z"/>
	<path fill="#575756" d="M-318.773,335.205v-15.021h-15.019v15.021h-3.595v-31.86h3.595v13.984h15.019v-13.984h3.595v31.86H-318.773
		z"/>
	<path fill="#575756" d="M-306.11,335.205v-31.86h3.595v31.86H-306.11z"/>
	<path fill="#575756" d="M-293.452,335.205v-31.86h3.595v28.907h14.575v2.953H-293.452z"/>
	<path fill="#575756" d="M-270.055,335.205v-31.86h17.63v2.807h-14.035v11.178h12.999v2.808h-12.999v12.261h14.478v2.808H-270.055z"
		/>
	<path fill="#575756" d="M-225.335,335.205l-15.02-27.627v27.627h-3.298v-31.86h5.121l14.92,27.625v-27.625h3.496v31.86H-225.335z"
		/>
	<path fill="#575756" d="M-189.775,335.205l-3.395-9.503h-13.1l-3.595,9.503h-3.792l12.951-31.86h2.955l12.015,31.86H-189.775z
		 M-199.426,307.875l-5.809,15.116h11.129L-199.426,307.875z"/>
	<path fill="#575756" d="M-356.353,386.103h-7.779v-31.86h7.779c11.03,0,15.218,4.333,15.218,15.806
		C-341.135,381.623-345.568,386.103-356.353,386.103z M-356.353,357.049h-4.185v26.246h4.628c7.485,0,11.031-3.988,11.031-13.197
		C-344.879,360.153-348.08,357.049-356.353,357.049z"/>
	<path fill="#575756" d="M-333.201,386.103v-31.86h17.629v2.807h-14.034v11.178h12.999v2.807h-12.999v12.262h14.477v2.808H-333.201z
		"/>
	<path fill="#575756" d="M-306.798,386.103v-31.86h3.594v28.905h14.576v2.955H-306.798z"/>
	<path fill="#575756" d="M-271.385,386.103v-31.86h3.595v28.905h14.575v2.955H-271.385z"/>
	<path fill="#575756" d="M-248.58,386.103v-31.86h3.595v31.86H-248.58z"/>
	<path fill="#575756" d="M-225.631,386.103h-10.29v-31.86h8.665c6.205,0,10.735,1.479,10.735,8.32c0,3.35-2.116,5.812-5.071,6.847
		c3.939,0.789,6.55,3.249,6.55,7.631C-215.043,384.33-219.819,386.103-225.631,386.103z M-227.256,357.049h-5.07v11.277h5.76
		c3.498,0,6.354-1.675,6.354-5.714C-220.214,358.181-222.429,357.049-227.256,357.049z M-226.467,371.085h-5.859v12.211h6.4
		c4.186,0,7.141-0.983,7.141-6.255C-218.786,372.068-222.282,371.085-226.467,371.085z"/>
	<path fill="#575756" d="M-189.922,386.103l-10.489-14.231h-3.348v14.231h-3.595v-31.86h9.946c5.072,0,10.145,1.921,10.145,8.567
		c0,4.63-2.118,8.667-8.964,8.963l10.735,14.33H-189.922z M-197.162,357.049h-6.598v12.016h6.647c4.629,0,6.155-2.709,6.155-6.255
		C-190.957,359.067-193.172,357.049-197.162,357.049z"/>
	<path fill="#575756" d="M-166.426,386.94c-10.589,0-13.74-7.141-13.74-16.646c0-9.404,3.597-16.595,13.788-16.595
		c10.343,0,13.494,7.042,13.494,16.595C-152.884,379.752-156.333,386.94-166.426,386.94z M-166.426,356.506
		c-7.583,0-9.997,5.367-9.997,13.788s2.414,13.839,9.997,13.839c7.682,0,9.8-5.664,9.8-13.839
		C-156.627,361.826-158.893,356.506-166.426,356.506z"/>
</g>
<g>
	<path fill="#1D71B8" d="M-428.617,352.514c0,27.184,9.642,34.651,9.642,34.651h-271.735c0,0-20.564-13.228-20.564-31.269
		c0-22.855,20.564-36.091,20.564-36.091h271.735C-418.975,319.805-428.617,328.644-428.617,352.514z"/>
	<path fill="#1D71B8" d="M-606.121,312.97c0,0,73.209-11.6,115.805-36.173c54.267-31.312,68.908-55.775,68.908-55.775
		s-11.949,38.693-67.569,67.545C-540.571,315.331-606.121,312.97-606.121,312.97z"/>
	<g>
		<polygon fill="#FFFFFF" points="-427.319,338.445 -682.292,338.445 -682.292,336.617 -426.921,336.617 -427.319,338.445 		"/>
	</g>
	<g>
		<polygon fill="#FFFFFF" points="-426.023,373.585 -682.292,373.585 -682.292,371.757 -426.521,371.757 -426.023,373.585 		"/>
	</g>
	<g>
		<polygon fill="#FFFFFF" points="-428.585,355.84 -690.611,355.84 -690.611,354.012 -428.617,354.012 -428.585,355.84 		"/>
	</g>
	<path fill="#1D71B8" d="M-543.476,227.116c-0.894,32.186-44.945,67.495-105.057,82.13c-12.806,3.117-25.388,5.046-37.425,5.91
		l-0.017,0.054c18.843,0.668,38.578-0.368,58.755-3.317c84.244-12.328,151.662-54.286,174.229-102.929L-543.476,227.116z"/>
</g>
<g>
	<path fill="#1D71B8" d="M282.658,143.551c0,27.184,9.642,34.651,9.642,34.651H20.565c0,0-20.564-13.229-20.564-31.27
		c0-22.855,20.564-36.091,20.564-36.091H292.3C292.3,110.842,282.658,119.681,282.658,143.551z"/>
	<path fill="#1D71B8" d="M105.154,104.007c0,0,73.209-11.6,115.805-36.173c54.267-31.312,68.908-55.774,68.908-55.774
		s-11.949,38.693-67.569,67.545C170.704,106.367,105.154,104.007,105.154,104.007z"/>
	<g>
		<polygon fill="#FFFFFF" points="283.956,129.481 28.983,129.481 28.983,127.653 284.354,127.653 283.956,129.481 		"/>
	</g>
	<g>
		<polygon fill="#FFFFFF" points="285.252,164.622 28.983,164.622 28.983,162.794 284.754,162.794 285.252,164.622 		"/>
	</g>
	<g>
		<polygon fill="#FFFFFF" points="282.69,146.877 20.664,146.877 20.664,145.049 282.658,145.049 282.69,146.877 		"/>
	</g>
	<path fill="#1D71B8" d="M167.799,18.152c-0.895,32.187-44.945,67.495-105.057,82.13c-12.806,3.117-25.388,5.046-37.425,5.91
		l-0.017,0.054c18.843,0.668,38.578-0.368,58.755-3.317C168.299,90.601,235.718,48.643,258.284,0L167.799,18.152z"/>
</g>
</svg>
