<?xml version="1.0" encoding="utf-8"?>
<!-- Generator: Adobe Illustrator 17.0.0, SVG Export Plug-In . SVG Version: 6.00 Build 0)  -->
<!DOCTYPE svg PUBLIC "-//W3C//DTD SVG 1.1//EN" "http://www.w3.org/Graphics/SVG/1.1/DTD/svg11.dtd">
<svg version="1.1" id="Layer_1" xmlns="http://www.w3.org/2000/svg" xmlns:xlink="http://www.w3.org/1999/xlink" x="0px" y="0px"
	 width="1670.893px" height="124.118px" viewBox="0 0 1670.893 124.118" enable-background="new 0 0 1670.893 124.118"
	 xml:space="preserve">
<g>
	<g>
		<path fill="#575756" d="M-1278.662,238.04c-9.751,0-13.297-7.042-13.297-16.741c0-8.865,3.201-16.499,13.592-16.499
			c2.757,0,5.317,0.395,7.731,1.182l-1.232,3.154c-2.067-0.888-4.135-1.529-6.499-1.529c-7.731,0-9.85,6.255-9.85,13.643
			c0,7.828,2.216,13.984,9.555,13.984c2.461,0,4.578-0.739,7.139-1.773l1.232,3.152
			C-1273.097,237.598-1275.56,238.04-1278.662,238.04z"/>
		<path fill="#575756" d="M-1242.807,237.204l-3.396-9.505h-13.1l-3.595,9.505h-3.792l12.951-31.86h2.955l12.015,31.86H-1242.807z
			 M-1252.458,209.873l-5.811,15.118h11.129L-1252.458,209.873z M-1253.985,203.619h-2.561l4.729-5.761h3.643L-1253.985,203.619z"/>
		<path fill="#575756" d="M-1204.242,237.204v-27.972l-10.883,27.972h-2.955l-10.981-27.972v27.972h-3.298v-31.86h5.514
			l10.391,26.837l10.49-26.837h5.219v31.86H-1204.242z"/>
		<path fill="#575756" d="M-1170.403,237.204l-3.396-9.505h-13.099l-3.595,9.505h-3.792l12.95-31.86h2.955l12.016,31.86H-1170.403z
			 M-1180.054,209.873l-5.811,15.118h11.13L-1180.054,209.873z"/>
		<path fill="#575756" d="M-1142.524,237.204l-10.489-14.232h-3.348v14.232h-3.595v-31.86h9.946c5.072,0,10.146,1.921,10.146,8.567
			c0,4.63-2.118,8.667-8.964,8.964l10.735,14.329H-1142.524z M-1149.763,208.15h-6.598v12.016h6.647
			c4.629,0,6.155-2.709,6.155-6.255C-1143.558,210.167-1145.774,208.15-1149.763,208.15z"/>
		<path fill="#575756" d="M-1110.362,237.204l-3.396-9.505h-13.1l-3.594,9.505h-3.793l12.951-31.86h2.955l12.015,31.86H-1110.362z
			 M-1120.013,209.873l-5.811,15.118h11.13L-1120.013,209.873z"/>
		<path fill="#575756" d="M-1278.662,288.939c-9.751,0-13.297-7.042-13.297-16.743c0-8.863,3.201-16.495,13.592-16.495
			c2.757,0,5.317,0.393,7.731,1.182l-1.232,3.15c-2.067-0.886-4.135-1.525-6.499-1.525c-7.731,0-9.85,6.253-9.85,13.639
			c0,7.831,2.216,13.986,9.555,13.986c2.461,0,4.578-0.739,7.139-1.773l1.232,3.152
			C-1273.097,288.495-1275.56,288.939-1278.662,288.939z"/>
		<path fill="#575756" d="M-1244.875,288.102v-15.021h-15.019v15.021h-3.595v-31.86h3.595v13.984h15.019v-13.984h3.595v31.86
			H-1244.875z"/>
		<path fill="#575756" d="M-1232.211,288.102v-31.86h3.595v31.86H-1232.211z"/>
		<path fill="#575756" d="M-1219.553,288.102v-31.86h3.595v28.907h14.575v2.953H-1219.553z"/>
		<path fill="#575756" d="M-1196.157,288.102v-31.86h17.63v2.807h-14.035v11.178h12.999v2.808h-12.999v12.261h14.478v2.808
			H-1196.157z"/>
		<path fill="#575756" d="M-1151.436,288.102l-15.021-27.627v27.627h-3.298v-31.86h5.121l14.92,27.625v-27.625h3.496v31.86
			H-1151.436z"/>
		<path fill="#575756" d="M-1115.876,288.102l-3.396-9.503h-13.1l-3.595,9.503h-3.792l12.951-31.86h2.955l12.015,31.86H-1115.876z
			 M-1125.528,260.772l-5.81,15.116h11.129L-1125.528,260.772z"/>
		<path fill="#575756" d="M-1282.455,339h-7.779v-31.86h7.779c11.03,0,15.218,4.333,15.218,15.806
			C-1267.237,334.52-1271.669,339-1282.455,339z M-1282.455,309.947h-4.185v26.246h4.628c7.485,0,11.031-3.988,11.031-13.197
			C-1270.98,313.05-1274.181,309.947-1282.455,309.947z"/>
		<path fill="#575756" d="M-1259.302,339v-31.86h17.629v2.807h-14.034v11.178h12.999v2.807h-12.999v12.262h14.478V339H-1259.302z"/>
		<path fill="#575756" d="M-1232.9,339v-31.86h3.594v28.905h14.576V339H-1232.9z"/>
		<path fill="#575756" d="M-1197.487,339v-31.86h3.595v28.905h14.575V339H-1197.487z"/>
		<path fill="#575756" d="M-1174.681,339v-31.86h3.595V339H-1174.681z"/>
		<path fill="#575756" d="M-1151.733,339h-10.29v-31.86h8.665c6.205,0,10.735,1.479,10.735,8.32c0,3.35-2.116,5.812-5.071,6.847
			c3.939,0.789,6.55,3.249,6.55,7.631C-1141.144,337.227-1145.92,339-1151.733,339z M-1153.358,309.947h-5.07v11.277h5.76
			c3.498,0,6.354-1.675,6.354-5.714C-1146.315,311.079-1148.531,309.947-1153.358,309.947z M-1152.569,323.982h-5.859v12.211h6.4
			c4.186,0,7.141-0.983,7.141-6.255C-1144.887,324.965-1148.383,323.982-1152.569,323.982z"/>
		<path fill="#575756" d="M-1116.024,339l-10.489-14.231h-3.348V339h-3.595v-31.86h9.946c5.072,0,10.146,1.921,10.146,8.567
			c0,4.63-2.118,8.667-8.964,8.963l10.735,14.33H-1116.024z M-1123.263,309.947h-6.598v12.016h6.647
			c4.629,0,6.155-2.709,6.155-6.255C-1117.058,311.964-1119.274,309.947-1123.263,309.947z"/>
		<path fill="#575756" d="M-1092.528,339.837c-10.589,0-13.74-7.141-13.74-16.646c0-9.404,3.597-16.595,13.788-16.595
			c10.343,0,13.494,7.042,13.494,16.595C-1078.986,332.649-1082.434,339.837-1092.528,339.837z M-1092.528,309.404
			c-7.583,0-9.997,5.367-9.997,13.788s2.414,13.839,9.997,13.839c7.682,0,9.8-5.664,9.8-13.839
			C-1082.728,314.723-1084.995,309.404-1092.528,309.404z"/>
	</g>
	<g>
		<path fill="#1D71B8" d="M-1354.719,305.412c0,27.184,9.642,34.651,9.642,34.651h-271.735c0,0-20.564-13.228-20.564-31.269
			c0-22.855,20.564-36.091,20.564-36.091h271.735C-1345.077,272.703-1354.719,281.541-1354.719,305.412z"/>
		<path fill="#1D71B8" d="M-1532.222,265.868c0,0,73.209-11.6,115.805-36.173c54.267-31.312,68.908-55.774,68.908-55.774
			s-11.949,38.693-67.569,67.545C-1466.673,268.228-1532.222,265.868-1532.222,265.868z"/>
		<g>
			<polygon fill="#FFFFFF" points="-1353.421,291.342 -1608.394,291.342 -1608.394,289.514 -1353.022,289.514 -1353.421,291.342 			
				"/>
		</g>
		<g>
			<polygon fill="#FFFFFF" points="-1352.125,326.483 -1608.394,326.483 -1608.394,324.655 -1352.623,324.655 -1352.125,326.483 			
				"/>
		</g>
		<g>
			<polygon fill="#FFFFFF" points="-1354.687,308.738 -1616.713,308.738 -1616.713,306.91 -1354.719,306.91 -1354.687,308.738 			
				"/>
		</g>
		<path fill="#1D71B8" d="M-1469.577,180.013c-0.895,32.186-44.945,67.495-105.057,82.13c-12.806,3.117-25.388,5.046-37.425,5.91
			l-0.017,0.054c18.843,0.668,38.578-0.368,58.755-3.317c84.244-12.328,151.662-54.286,174.229-102.929L-1469.577,180.013z"/>
	</g>
</g>
<g>
	<path fill="#575756" d="M-420.592,260.533c-9.751,0-13.297-7.042-13.297-16.741c0-8.865,3.201-16.499,13.592-16.499
		c2.757,0,5.317,0.395,7.731,1.182l-1.232,3.154c-2.067-0.888-4.135-1.529-6.499-1.529c-7.731,0-9.85,6.255-9.85,13.643
		c0,7.828,2.216,13.984,9.555,13.984c2.461,0,4.578-0.739,7.139-1.773l1.232,3.152C-415.027,260.09-417.49,260.533-420.592,260.533z
		"/>
	<path fill="#575756" d="M-384.737,259.696l-3.396-9.505h-13.1l-3.595,9.505h-3.792l12.951-31.86h2.955l12.015,31.86H-384.737z
		 M-394.388,232.366l-5.811,15.118h11.129L-394.388,232.366z M-395.915,226.111h-2.56l4.728-5.761h3.643L-395.915,226.111z"/>
	<path fill="#575756" d="M-346.172,259.696v-27.972l-10.883,27.972h-2.955l-10.982-27.972v27.972h-3.298v-31.86h5.514l10.391,26.837
		l10.49-26.837h5.219v31.86H-346.172z"/>
	<path fill="#575756" d="M-312.333,259.696l-3.396-9.505h-13.099l-3.595,9.505h-3.792l12.95-31.86h2.955l12.016,31.86H-312.333z
		 M-321.984,232.366l-5.811,15.118h11.13L-321.984,232.366z"/>
	<path fill="#575756" d="M-284.454,259.696l-10.489-14.232h-3.348v14.232h-3.595v-31.86h9.946c5.072,0,10.145,1.921,10.145,8.567
		c0,4.63-2.118,8.667-8.964,8.964l10.735,14.329H-284.454z M-291.693,230.642h-6.598v12.016h6.648c4.629,0,6.155-2.709,6.155-6.255
		C-285.488,232.659-287.704,230.642-291.693,230.642z"/>
	<path fill="#575756" d="M-252.292,259.696l-3.396-9.505h-13.1l-3.594,9.505h-3.793l12.951-31.86h2.955l12.015,31.86H-252.292z
		 M-261.943,232.366l-5.811,15.118h11.13L-261.943,232.366z"/>
	<path fill="#575756" d="M-420.592,311.431c-9.751,0-13.297-7.042-13.297-16.743c0-8.863,3.201-16.495,13.592-16.495
		c2.757,0,5.317,0.393,7.731,1.182l-1.232,3.15c-2.067-0.886-4.135-1.525-6.499-1.525c-7.731,0-9.85,6.253-9.85,13.639
		c0,7.831,2.216,13.986,9.555,13.986c2.461,0,4.578-0.739,7.139-1.773l1.232,3.152C-415.027,310.987-417.49,311.431-420.592,311.431
		z"/>
	<path fill="#575756" d="M-386.805,310.594v-15.021h-15.019v15.021h-3.595v-31.86h3.595v13.984h15.019v-13.984h3.595v31.86H-386.805
		z"/>
	<path fill="#575756" d="M-374.141,310.594v-31.86h3.595v31.86H-374.141z"/>
	<path fill="#575756" d="M-361.483,310.594v-31.86h3.595v28.907h14.575v2.953H-361.483z"/>
	<path fill="#575756" d="M-338.087,310.594v-31.86h17.63v2.807h-14.035v11.178h12.999v2.808h-12.999v12.261h14.477v2.808H-338.087z"
		/>
	<path fill="#575756" d="M-293.366,310.594l-15.021-27.627v27.627h-3.298v-31.86h5.121l14.92,27.625v-27.625h3.496v31.86H-293.366z"
		/>
	<path fill="#575756" d="M-257.807,310.594l-3.396-9.503h-13.1l-3.595,9.503h-3.792l12.951-31.86h2.955l12.015,31.86H-257.807z
		 M-267.458,283.264l-5.81,15.116h11.129L-267.458,283.264z"/>
	<path fill="#575756" d="M-424.385,361.492h-7.779v-31.86h7.779c11.03,0,15.218,4.333,15.218,15.806
		C-409.167,357.012-413.6,361.492-424.385,361.492z M-424.385,332.439h-4.185v26.246h4.628c7.485,0,11.031-3.988,11.031-13.197
		C-412.91,335.542-416.111,332.439-424.385,332.439z"/>
	<path fill="#575756" d="M-401.232,361.492v-31.86h17.629v2.807h-14.034v11.178h12.999v2.807h-12.999v12.262h14.478v2.808H-401.232z
		"/>
	<path fill="#575756" d="M-374.83,361.492v-31.86h3.594v28.905h14.576v2.955H-374.83z"/>
	<path fill="#575756" d="M-339.417,361.492v-31.86h3.595v28.905h14.575v2.955H-339.417z"/>
	<path fill="#575756" d="M-316.611,361.492v-31.86h3.595v31.86H-316.611z"/>
	<path fill="#575756" d="M-293.663,361.492h-10.29v-31.86h8.665c6.205,0,10.735,1.479,10.735,8.32c0,3.35-2.116,5.812-5.071,6.847
		c3.939,0.789,6.55,3.249,6.55,7.631C-283.074,359.719-287.85,361.492-293.663,361.492z M-295.288,332.439h-5.07v11.277h5.76
		c3.498,0,6.353-1.675,6.353-5.714C-288.245,333.571-290.461,332.439-295.288,332.439z M-294.499,346.474h-5.859v12.211h6.4
		c4.186,0,7.141-0.983,7.141-6.255C-286.817,347.457-290.313,346.474-294.499,346.474z"/>
	<path fill="#575756" d="M-257.954,361.492l-10.489-14.231h-3.348v14.231h-3.595v-31.86h9.946c5.072,0,10.145,1.921,10.145,8.567
		c0,4.63-2.118,8.667-8.964,8.963l10.735,14.33H-257.954z M-265.193,332.439h-6.598v12.016h6.648c4.629,0,6.155-2.709,6.155-6.255
		C-258.988,334.456-261.204,332.439-265.193,332.439z"/>
	<path fill="#575756" d="M-234.458,362.329c-10.589,0-13.74-7.141-13.74-16.646c0-9.404,3.597-16.595,13.788-16.595
		c10.343,0,13.494,7.042,13.494,16.595C-220.916,355.141-224.364,362.329-234.458,362.329z M-234.458,331.896
		c-7.583,0-9.997,5.367-9.997,13.788s2.414,13.839,9.997,13.839c7.682,0,9.8-5.664,9.8-13.839
		C-224.658,337.215-226.925,331.896-234.458,331.896z"/>
</g>
<g>
	<path fill="#1D71B8" d="M-496.649,327.904c0,27.184,9.642,34.651,9.642,34.651h-271.735c0,0-20.565-13.228-20.565-31.269
		c0-22.855,20.565-36.091,20.565-36.091h271.735C-487.007,295.195-496.649,304.033-496.649,327.904z"/>
	<path fill="#1D71B8" d="M-674.152,288.36c0,0,73.21-11.6,115.805-36.173c54.267-31.312,68.908-55.774,68.908-55.774
		s-11.949,38.693-67.569,67.545C-608.603,290.72-674.152,288.36-674.152,288.36z"/>
	<g>
		<polygon fill="#FFFFFF" points="-495.351,313.834 -750.324,313.834 -750.324,312.006 -494.953,312.006 -495.351,313.834 		"/>
	</g>
	<g>
		<polygon fill="#FFFFFF" points="-494.055,348.975 -750.324,348.975 -750.324,347.147 -494.553,347.147 -494.055,348.975 		"/>
	</g>
	<g>
		<polygon fill="#FFFFFF" points="-496.617,331.23 -758.643,331.23 -758.643,329.402 -496.649,329.402 -496.617,331.23 		"/>
	</g>
	<path fill="#1D71B8" d="M-611.507,202.505c-0.895,32.186-44.945,67.495-105.057,82.13c-12.806,3.117-25.388,5.046-37.425,5.91
		l-0.017,0.054c18.843,0.668,38.578-0.368,58.755-3.317c84.244-12.328,151.662-54.286,174.229-102.929L-611.507,202.505z"/>
</g>
<g>
	<path fill="#1D71B8" d="M196.872,99.983c0,18.933,6.716,24.135,6.716,24.135H14.323c0,0-14.323-9.214-14.323-21.779
		C0,86.42,14.323,77.201,14.323,77.201h189.264C203.587,77.201,196.872,83.358,196.872,99.983z"/>
	<path fill="#1D71B8" d="M73.24,72.441c0,0,50.991-8.079,80.658-25.194c37.797-21.809,47.995-38.847,47.995-38.847
		s-8.322,26.95-47.062,47.045C118.895,74.085,73.24,72.441,73.24,72.441z"/>
	<g>
		<polygon fill="#FFFFFF" points="197.775,90.184 20.187,90.184 20.187,88.911 198.053,88.911 197.775,90.184 		"/>
	</g>
	<g>
		<polygon fill="#FFFFFF" points="198.678,114.659 20.187,114.659 20.187,113.386 198.332,113.386 198.678,114.659 		"/>
	</g>
	<g>
		<polygon fill="#FFFFFF" points="196.894,102.3 14.392,102.3 14.392,101.027 196.872,101.027 196.894,102.3 		"/>
	</g>
	<path fill="#1D71B8" d="M116.872,12.643c-0.623,22.418-31.304,47.01-73.172,57.204c-8.92,2.171-17.683,3.514-26.067,4.116
		l-0.012,0.037c13.124,0.465,26.869-0.256,40.923-2.311C117.221,63.103,164.178,33.88,179.895,0L116.872,12.643z"/>
</g>
<g>
	<g>
		<path fill="#575756" d="M293.421,108.305c-22.445,0-30.607-16.209-30.607-38.535c0-20.406,7.369-37.978,31.286-37.978
			c6.346,0,12.24,0.908,17.796,2.72l-2.837,7.261c-4.759-2.043-9.517-3.52-14.959-3.52c-17.796,0-22.672,14.398-22.672,31.402
			c0,18.019,5.1,32.189,21.993,32.189c5.665,0,10.538-1.701,16.432-4.082l2.837,7.256
			C306.229,107.287,300.56,108.305,293.421,108.305z"/>
		<path fill="#575756" d="M375.95,106.379l-7.816-21.878h-30.153l-8.274,21.878h-8.728l29.811-73.336h6.802l27.655,73.336H375.95z
			 M353.737,43.47l-13.375,34.799h25.617L353.737,43.47z M350.222,29.073h-5.894l10.884-13.26h8.385L350.222,29.073z"/>
		<path fill="#575756" d="M464.721,106.379V41.994l-25.05,64.385h-6.802l-25.277-64.385v64.385H400V33.043h12.691l23.917,61.773
			l24.146-61.773h12.013v73.336H464.721z"/>
		<path fill="#575756" d="M542.611,106.379l-7.818-21.878h-30.151l-8.274,21.878h-8.728l29.809-73.336h6.802l27.657,73.336H542.611z
			 M520.395,43.47l-13.375,34.799h25.619L520.395,43.47z"/>
		<path fill="#575756" d="M606.783,106.379l-24.144-32.758h-7.706v32.758h-8.274V33.043h22.894c11.675,0,23.353,4.422,23.353,19.72
			c0,10.657-4.876,19.95-20.633,20.633l24.711,32.983H606.783z M590.119,39.503h-15.187v27.658h15.301
			c10.655,0,14.168-6.236,14.168-14.398C604.402,44.147,599.302,39.503,590.119,39.503z"/>
		<path fill="#575756" d="M680.813,106.379l-7.818-21.878h-30.153l-8.272,21.878h-8.731l29.811-73.336h6.802l27.655,73.336H680.813z
			 M658.598,43.47l-13.375,34.799h25.619L658.598,43.47z"/>
	</g>
	<g>
		<path fill="#575756" d="M760.68,108.305c-22.445,0-30.607-16.209-30.607-38.54c0-20.401,7.369-37.968,31.286-37.968
			c6.346,0,12.24,0.904,17.796,2.72l-2.837,7.252c-4.759-2.039-9.518-3.511-14.959-3.511c-17.796,0-22.672,14.393-22.672,31.393
			c0,18.026,5.1,32.194,21.993,32.194c5.665,0,10.538-1.702,16.432-4.082l2.837,7.256
			C773.488,107.283,767.819,108.305,760.68,108.305z"/>
		<path fill="#575756" d="M838.451,106.379V71.805h-34.57v34.574h-8.274V33.043h8.274v32.189h34.57V33.043h8.274v73.336H838.451z"/>
		<path fill="#575756" d="M867.599,106.379V33.043h8.274v73.336H867.599z"/>
		<path fill="#575756" d="M896.736,106.379V33.043h8.274v66.539h33.549v6.797H896.736z"/>
		<path fill="#575756" d="M950.59,106.379V33.043h40.581v6.46h-32.306v25.729h29.921v6.463h-29.921v28.222h33.324v6.463H950.59z"/>
		<path fill="#575756" d="M1053.528,106.379l-34.574-63.592v63.592h-7.591V33.043h11.788l34.343,63.587V33.043h8.047v73.336
			H1053.528z"/>
		<path fill="#575756" d="M1135.379,106.379l-7.816-21.874h-30.153l-8.274,21.874h-8.729l29.811-73.336h6.802l27.655,73.336
			H1135.379z M1113.164,43.47l-13.372,34.794h25.616L1113.164,43.47z"/>
	</g>
	<g>
		<path fill="#575756" d="M1202.548,106.379h-17.906V33.043h17.906c25.39,0,35.028,9.974,35.028,36.381
			C1237.577,96.066,1227.373,106.379,1202.548,106.379z M1202.548,39.503h-9.632v60.413h10.653c17.23,0,25.392-9.18,25.392-30.378
			C1228.96,46.647,1221.592,39.503,1202.548,39.503z"/>
		<path fill="#575756" d="M1255.84,106.379V33.043h40.578v6.46h-32.304v25.729h29.921v6.46h-29.921v28.224h33.324v6.463H1255.84z"/>
		<path fill="#575756" d="M1316.613,106.379V33.043h8.272v66.534h33.552v6.802H1316.613z"/>
		<path fill="#575756" d="M1398.127,106.379V33.043h8.274v66.534h33.549v6.802H1398.127z"/>
		<path fill="#575756" d="M1450.621,106.379V33.043h8.274v73.336H1450.621z"/>
		<path fill="#575756" d="M1503.443,106.379h-23.686V33.043h19.945c14.283,0,24.711,3.403,24.711,19.152
			c0,7.71-4.871,13.379-11.673,15.76c9.068,1.816,15.076,7.479,15.076,17.565C1527.817,102.297,1516.823,106.379,1503.443,106.379z
			 M1499.703,39.503h-11.671v25.958h13.258c8.052,0,14.625-3.855,14.625-13.152C1515.914,42.109,1510.814,39.503,1499.703,39.503z
			 M1501.519,71.809h-13.487v28.107h14.732c9.635,0,16.437-2.264,16.437-14.398C1519.201,74.073,1511.154,71.809,1501.519,71.809z"
			/>
		<path fill="#575756" d="M1585.638,106.379l-24.144-32.758h-7.706v32.758h-8.274V33.043h22.894c11.675,0,23.353,4.422,23.353,19.72
			c0,10.657-4.876,19.949-20.633,20.631l24.711,32.985H1585.638z M1568.975,39.503h-15.187v27.658h15.301
			c10.655,0,14.168-6.235,14.168-14.397C1583.258,44.147,1578.158,39.503,1568.975,39.503z"/>
		<path fill="#575756" d="M1639.722,108.305c-24.373,0-31.627-16.436-31.627-38.315c0-21.647,8.279-38.198,31.737-38.198
			c23.807,0,31.061,16.209,31.061,38.198C1670.893,91.759,1662.955,108.305,1639.722,108.305z M1639.722,38.253
			c-17.455,0-23.011,12.354-23.011,31.737s5.557,31.854,23.011,31.854c17.682,0,22.557-13.038,22.557-31.854
			C1662.279,50.497,1657.062,38.253,1639.722,38.253z"/>
	</g>
</g>
</svg>
