<svg xmlns="http://www.w3.org/2000/svg" width="558.391" height="178.202" viewBox="0 0 558.391 178.202"><g fill="#575756"><path d="M-499.355 53.688c-9.751 0-13.297-7.042-13.297-16.741 0-8.865 3.201-16.499 13.592-16.499 2.757 0 5.317.395 7.731 1.182l-1.232 3.154c-2.067-.888-4.135-1.529-6.499-1.529-7.732 0-9.85 6.255-9.85 13.642 0 7.828 2.216 13.984 9.555 13.984 2.461 0 4.578-.739 7.139-1.773l1.232 3.152c-2.807.985-5.27 1.428-8.371 1.428zM-463.501 52.851l-3.396-9.505h-13.1l-3.595 9.505h-3.792l12.951-31.86h2.955l12.015 31.86h-4.038zm-9.65-27.33l-5.811 15.118h11.129l-5.318-15.118zm-1.527-6.255h-2.56l4.728-5.761h3.643l-5.811 5.761zM-424.935 52.851V24.879l-10.883 27.972h-2.955l-10.982-27.972v27.972h-3.298V20.99h5.514l10.391 26.837 10.49-26.837h5.219v31.86h-3.496zM-391.096 52.851l-3.396-9.505h-13.099l-3.595 9.505h-3.792l12.95-31.86h2.955l12.016 31.86h-4.039zm-9.652-27.33l-5.811 15.118h11.13l-5.319-15.118zM-363.217 52.851l-10.489-14.231h-3.348v14.231h-3.595V20.99h9.946c5.072 0 10.145 1.921 10.145 8.567 0 4.63-2.118 8.667-8.964 8.964l10.735 14.329h-4.43zm-7.24-29.054h-6.598v12.016h6.648c4.629 0 6.155-2.709 6.155-6.255 0-3.744-2.215-5.761-6.205-5.761zM-331.055 52.851l-3.396-9.505h-13.1l-3.594 9.505h-3.793l12.951-31.86h2.955l12.015 31.86h-4.038zm-9.652-27.33l-5.811 15.118h11.13l-5.319-15.118zM-499.355 104.586c-9.751 0-13.297-7.042-13.297-16.743 0-8.863 3.201-16.495 13.592-16.495 2.757 0 5.317.393 7.731 1.182l-1.232 3.15c-2.067-.886-4.135-1.525-6.499-1.525-7.732 0-9.85 6.253-9.85 13.639 0 7.831 2.216 13.986 9.555 13.986 2.461 0 4.578-.739 7.139-1.774l1.232 3.152c-2.807.984-5.27 1.428-8.371 1.428zM-465.568 103.749v-15.02h-15.019v15.021h-3.595V71.89h3.595v13.984h15.019V71.889h3.595v31.86h-3.595zM-452.905 103.749v-31.86h3.595v31.86h-3.595zM-440.247 103.749v-31.86h3.595v28.907h14.575v2.953h-18.17zM-416.85 103.749v-31.86h17.63v2.807h-14.035v11.178h12.999v2.808h-12.999v12.261h14.477v2.808h-18.072zM-372.13 103.749l-15.021-27.627v27.627h-3.298v-31.86h5.121l14.92 27.625V71.889h3.496v31.86h-5.218zM-336.57 103.749l-3.396-9.503h-13.1l-3.595 9.503h-3.792l12.951-31.86h2.955l12.015 31.86h-4.038zm-9.651-27.33l-5.81 15.116h11.129l-5.319-15.116zM-503.148 154.647h-7.779v-31.86h7.779c11.03 0 15.218 4.333 15.218 15.806 0 11.574-4.433 16.054-15.218 16.054zm0-29.053h-4.185v26.246h4.628c7.485 0 11.031-3.988 11.031-13.197.001-9.946-3.201-13.049-11.474-13.049zM-479.996 154.647v-31.86h17.629v2.807h-14.034v11.178h12.999v2.807h-12.999v12.262h14.478v2.808h-18.073zM-453.593 154.647v-31.86H-450v28.905h14.576v2.955h-18.169zM-418.18 154.647v-31.86h3.595v28.905h14.575v2.955h-18.17zM-395.375 154.647v-31.86h3.595v31.86h-3.595zM-372.426 154.647h-10.29v-31.86h8.665c6.205 0 10.735 1.479 10.735 8.32 0 3.35-2.116 5.812-5.071 6.847 3.94.789 6.55 3.249 6.55 7.631-.001 7.289-4.777 9.062-10.589 9.062zm-1.625-29.053h-5.07v11.277h5.76c3.498 0 6.353-1.675 6.353-5.714 0-4.431-2.216-5.563-7.043-5.563zm.789 14.035h-5.859v12.211h6.4c4.186 0 7.141-.983 7.141-6.255-.001-4.973-3.497-5.956-7.682-5.956zM-336.717 154.647l-10.489-14.231h-3.348v14.231h-3.595v-31.86h9.946c5.072 0 10.145 1.921 10.145 8.567 0 4.63-2.118 8.667-8.964 8.963l10.735 14.33h-4.43zm-7.24-29.053h-6.598v12.016h6.647c4.629 0 6.155-2.709 6.155-6.255.001-3.744-2.214-5.761-6.204-5.761zM-313.221 155.484c-10.589 0-13.74-7.141-13.74-16.646 0-9.404 3.597-16.595 13.788-16.595 10.343 0 13.494 7.042 13.494 16.595 0 9.458-3.449 16.646-13.542 16.646zm0-30.433c-7.583 0-9.997 5.367-9.997 13.788s2.414 13.839 9.997 13.839c7.682 0 9.8-5.664 9.8-13.839 0-8.469-2.267-13.788-9.8-13.788z"/></g><path fill="#1D71B8" d="M-575.412 121.059c0 27.184 9.642 34.651 9.642 34.651h-271.735s-20.564-13.229-20.564-31.27c0-22.855 20.564-36.091 20.564-36.091h271.735c0 .001-9.642 8.839-9.642 32.71zM-752.916 81.515s73.209-11.6 115.805-36.173c54.267-31.312 68.908-55.774 68.908-55.774s-11.949 38.693-67.569 67.545c-51.594 26.762-117.144 24.402-117.144 24.402z"/><path fill="#FFF" d="M-574.114 106.989h-254.973v-1.828h255.371l-.398 1.828zM-572.818 142.13h-256.269v-1.828h255.771l.498 1.828zM-575.38 124.385h-262.026v-1.828h261.994l.032 1.828z"/><path fill="#1D71B8" d="M-690.271-4.34c-.894 32.187-44.945 67.495-105.057 82.13-12.806 3.117-25.388 5.046-37.425 5.91l-.017.054c18.843.668 38.578-.368 58.755-3.317 84.244-12.328 151.662-54.286 174.229-102.929L-690.271-4.34z"/><g fill="#575756"><path d="M358.715 76.18c-9.751 0-13.297-7.042-13.297-16.741 0-8.865 3.201-16.499 13.592-16.499 2.757 0 5.317.395 7.731 1.182l-1.232 3.154c-2.067-.888-4.135-1.529-6.499-1.529-7.732 0-9.85 6.255-9.85 13.643 0 7.828 2.216 13.984 9.555 13.984 2.461 0 4.578-.739 7.139-1.773l1.232 3.152c-2.807.984-5.27 1.427-8.371 1.427zM394.569 75.343l-3.396-9.505h-13.1l-3.595 9.505h-3.792l12.951-31.86h2.955l12.015 31.86h-4.038zm-9.65-27.33l-5.811 15.118h11.129l-5.318-15.118zm-1.527-6.255h-2.56l4.728-5.761h3.643l-5.811 5.761zM433.135 75.343V47.371l-10.883 27.972h-2.955l-10.982-27.972v27.972h-3.298v-31.86h5.514l10.391 26.837 10.49-26.837h5.219v31.86h-3.496zM466.974 75.343l-3.396-9.505h-13.099l-3.595 9.505h-3.792l12.95-31.86h2.955l12.016 31.86h-4.039zm-9.652-27.33l-5.811 15.118h11.13l-5.319-15.118zM494.853 75.343l-10.489-14.231h-3.348v14.231h-3.595v-31.86h9.946c5.072 0 10.145 1.921 10.145 8.567 0 4.63-2.118 8.667-8.964 8.964l10.735 14.329h-4.43zm-7.24-29.054h-6.598v12.016h6.648c4.629 0 6.155-2.709 6.155-6.255 0-3.743-2.215-5.761-6.205-5.761zM527.015 75.343l-3.396-9.505h-13.1l-3.594 9.505h-3.793l12.951-31.86h2.955l12.015 31.86h-4.038zm-9.652-27.33l-5.811 15.118h11.13l-5.319-15.118zM358.715 127.078c-9.751 0-13.297-7.042-13.297-16.743 0-8.863 3.201-16.495 13.592-16.495 2.757 0 5.317.393 7.731 1.182l-1.232 3.15c-2.067-.886-4.135-1.525-6.499-1.525-7.732 0-9.85 6.253-9.85 13.639 0 7.831 2.216 13.986 9.555 13.986 2.461 0 4.578-.739 7.139-1.774l1.232 3.152c-2.807.984-5.27 1.428-8.371 1.428zM392.502 126.241V111.22h-15.019v15.021h-3.595v-31.86h3.595v13.984h15.019V94.381h3.595v31.86h-3.595zM405.165 126.241v-31.86h3.595v31.86h-3.595zM417.823 126.241v-31.86h3.595v28.907h14.575v2.953h-18.17zM441.22 126.241v-31.86h17.63v2.807h-14.035v11.178h12.999v2.808h-12.999v12.261h14.477v2.808H441.22zM485.94 126.241l-15.02-27.627v27.627h-3.298v-31.86h5.121l14.92 27.625V94.381h3.496v31.86h-5.219zM521.5 126.241l-3.396-9.503h-13.1l-3.595 9.503h-3.792l12.951-31.86h2.955l12.015 31.86H521.5zm-9.651-27.33l-5.81 15.116h11.129l-5.319-15.116zM354.922 177.14h-7.779v-31.86h7.779c11.03 0 15.218 4.333 15.218 15.806 0 11.573-4.433 16.054-15.218 16.054zm0-29.054h-4.185v26.246h4.628c7.485 0 11.031-3.988 11.031-13.197.001-9.946-3.201-13.049-11.474-13.049zM378.074 177.14v-31.86h17.629v2.807h-14.034v11.178h12.999v2.807h-12.999v12.262h14.478v2.808h-18.073zM404.477 177.14v-31.86h3.594v28.905h14.576v2.955h-18.17zM439.89 177.14v-31.86h3.595v28.905h14.575v2.955h-18.17zM462.695 177.14v-31.86h3.595v31.86h-3.595zM485.644 177.14h-10.29v-31.86h8.665c6.205 0 10.735 1.479 10.735 8.32 0 3.35-2.116 5.812-5.071 6.847 3.94.789 6.55 3.249 6.55 7.631-.001 7.288-4.777 9.062-10.589 9.062zm-1.625-29.054h-5.07v11.277h5.76c3.498 0 6.353-1.675 6.353-5.714-.001-4.431-2.216-5.563-7.043-5.563zm.789 14.035h-5.859v12.211h6.4c4.186 0 7.141-.983 7.141-6.255-.001-4.973-3.497-5.956-7.682-5.956zM521.353 177.14l-10.489-14.231h-3.348v14.231h-3.595v-31.86h9.946c5.072 0 10.146 1.921 10.146 8.567 0 4.63-2.118 8.667-8.964 8.963l10.735 14.33h-4.431zm-7.24-29.054h-6.598v12.016h6.647c4.629 0 6.155-2.709 6.155-6.255.001-3.743-2.214-5.761-6.204-5.761zM544.849 177.977c-10.589 0-13.74-7.141-13.74-16.646 0-9.404 3.597-16.595 13.788-16.595 10.343 0 13.494 7.042 13.494 16.595 0 9.457-3.449 16.646-13.542 16.646zm0-30.434c-7.583 0-9.997 5.367-9.997 13.788s2.414 13.839 9.997 13.839c7.682 0 9.8-5.664 9.8-13.839-.001-8.469-2.267-13.788-9.8-13.788z"/></g><g><path fill="#1D71B8" d="M282.658 143.551c0 27.184 9.642 34.651 9.642 34.651H20.565S.001 164.973.001 146.932c0-22.856 20.564-36.091 20.564-36.091H292.3c0 .001-9.642 8.84-9.642 32.71zM105.154 104.007s73.21-11.6 115.805-36.173c54.267-31.312 68.908-55.774 68.908-55.774s-11.949 38.693-67.569 67.545c-51.594 26.762-117.144 24.402-117.144 24.402z"/><path fill="#FFF" d="M283.956 129.481H28.983v-1.828h255.371l-.398 1.828zM285.252 164.622H28.983v-1.828h255.771l.498 1.828zM282.69 146.877H20.664v-1.828h261.994l.032 1.828z"/><path fill="#1D71B8" d="M167.799 18.152c-.895 32.187-44.945 67.495-105.057 82.13-12.806 3.117-25.388 5.046-37.425 5.91l-.017.054c18.843.668 38.578-.368 58.755-3.317C168.299 90.601 235.718 48.643 258.284 0l-90.485 18.152z"/></g><g><path fill="#1D71B8" d="M993.933-62.256c0 27.184 9.642 34.651 9.642 34.651H731.84s-20.565-13.228-20.565-31.269c0-22.855 20.565-36.091 20.565-36.091h271.735s-9.642 8.838-9.642 32.709zM816.429-101.8s73.209-11.6 115.805-36.173c54.267-31.312 68.908-55.775 68.908-55.775s-11.949 38.693-67.569 67.545C881.979-99.44 816.429-101.8 816.429-101.8z"/><path fill="#FFF" d="M995.231-76.326H740.258v-1.828h255.371l-.398 1.828zM996.527-41.185H740.258v-1.828h255.771l.498 1.828zM993.965-58.93H731.939v-1.828h261.994l.032 1.828z"/><path fill="#1D71B8" d="M879.074-187.655c-.895 32.186-44.945 67.495-105.057 82.13-12.806 3.117-25.388 5.046-37.425 5.91l-.017.054c18.843.668 38.578-.368 58.755-3.317 84.244-12.328 151.662-54.286 174.229-102.929l-90.485 18.152z"/></g><g fill="#575756"><path d="M1072.727-70.46c-22.445 0-30.607-16.209-30.607-38.535 0-20.406 7.369-37.978 31.286-37.978 6.346 0 12.24.908 17.796 2.72l-2.837 7.261c-4.759-2.043-9.517-3.52-14.959-3.52-17.796 0-22.672 14.398-22.672 31.402 0 18.019 5.1 32.189 21.993 32.189 5.665 0 10.538-1.701 16.432-4.082l2.837 7.256c-6.46 2.269-12.13 3.287-19.269 3.287zM1155.257-72.386l-7.816-21.878h-30.153l-8.274 21.878h-8.728l29.811-73.336h6.802l27.655 73.336h-9.297zm-22.213-62.909l-13.375 34.799h25.617l-12.242-34.799zm-3.516-14.397h-5.894l10.884-13.26h8.385l-13.375 13.26zM1244.027-72.386v-64.385l-25.05 64.385h-6.802l-25.277-64.385v64.385h-7.591v-73.336h12.692l23.917 61.773 24.146-61.773h12.013v73.336h-8.048zM1321.917-72.386l-7.818-21.878h-30.151l-8.274 21.878h-8.728l29.809-73.336h6.802l27.657 73.336h-9.297zm-22.215-62.909l-13.375 34.799h25.619l-12.244-34.799zM1386.089-72.386l-24.144-32.758h-7.706v32.758h-8.274v-73.336h22.895c11.675 0 23.353 4.422 23.353 19.72 0 10.657-4.876 19.95-20.633 20.633l24.711 32.983h-10.202zm-16.663-66.876h-15.187v27.658h15.301c10.655 0 14.168-6.236 14.168-14.398.001-8.616-5.1-13.26-14.282-13.26zM1460.12-72.386l-7.818-21.878h-30.153l-8.272 21.878h-8.731l29.811-73.336h6.802l27.655 73.336h-9.294zm-22.216-62.909l-13.375 34.799h25.619l-12.244-34.799z"/><g><path d="M1539.987-70.46c-22.445 0-30.607-16.209-30.607-38.54 0-20.401 7.369-37.968 31.286-37.968 6.346 0 12.24.904 17.796 2.72l-2.837 7.252c-4.759-2.039-9.517-3.511-14.959-3.511-17.796 0-22.672 14.393-22.672 31.393 0 18.026 5.1 32.194 21.993 32.194 5.665 0 10.538-1.702 16.432-4.082l2.837 7.256c-6.461 2.263-12.13 3.286-19.269 3.286zM1617.758-72.386v-34.574h-34.57v34.574h-8.274v-73.336h8.274v32.189h34.57v-32.189h8.274v73.336h-8.274zM1646.906-72.386v-73.336h8.274v73.336h-8.274zM1676.043-72.386v-73.336h8.274v66.539h33.549v6.797h-41.823zM1729.896-72.386v-73.336h40.58v6.46h-32.306v25.729h29.921v6.463h-29.921v28.222h33.324v6.463h-41.598zM1832.835-72.386l-34.574-63.592v63.592h-7.591v-73.336h11.788l34.343 63.587v-63.587h8.047v73.336h-12.013zM1914.686-72.386l-7.816-21.874h-30.153l-8.274 21.874h-8.728l29.811-73.336h6.802l27.655 73.336h-9.297zm-22.216-62.909l-13.372 34.794h25.617l-12.245-34.794z"/></g><g><path d="M1981.855-72.386h-17.906v-73.336h17.906c25.39 0 35.028 9.974 35.028 36.381 0 26.642-10.203 36.955-35.028 36.955zm0-66.876h-9.632v60.413h10.652c17.23 0 25.392-9.18 25.392-30.378 0-22.892-7.369-30.035-26.412-30.035zM2035.147-72.386v-73.336h40.578v6.46h-32.304v25.729h29.921v6.46h-29.921v28.224h33.324v6.463h-41.598zM2095.92-72.386v-73.336h8.272v66.534h33.552v6.802h-41.824zM2177.434-72.386v-73.336h8.274v66.534h33.549v6.802h-41.823zM2229.928-72.386v-73.336h8.274v73.336h-8.274zM2282.75-72.386h-23.686v-73.336h19.945c14.283 0 24.711 3.403 24.711 19.152 0 7.71-4.871 13.379-11.673 15.76 9.068 1.816 15.076 7.479 15.076 17.565 0 16.777-10.994 20.859-24.373 20.859zm-3.74-66.876h-11.671v25.958h13.258c8.052 0 14.625-3.855 14.625-13.152-.001-10.201-5.101-12.806-16.212-12.806zm1.816 32.306h-13.487v28.107h14.732c9.635 0 16.437-2.264 16.437-14.398 0-11.445-8.048-13.709-17.682-13.709zM2364.945-72.386l-24.144-32.758h-7.706v32.758h-8.274v-73.336h22.894c11.676 0 23.353 4.422 23.353 19.72 0 10.657-4.876 19.949-20.633 20.631l24.711 32.985h-10.201zm-16.664-66.876h-15.187v27.658h15.301c10.655 0 14.168-6.235 14.168-14.397.001-8.617-5.099-13.261-14.282-13.261zM2419.028-70.46c-24.373 0-31.627-16.436-31.627-38.315 0-21.647 8.279-38.198 31.738-38.198 23.807 0 31.061 16.209 31.061 38.198-.001 21.769-7.938 38.315-31.172 38.315zm0-70.052c-17.455 0-23.011 12.354-23.011 31.737s5.556 31.854 23.011 31.854c17.682 0 22.557-13.038 22.557-31.854 0-19.493-5.217-31.737-22.557-31.737z"/></g></g></svg>